G04 ================== begin FILE IDENTIFICATION RECORD ==================*
G04 Layout Name:  C:/Users/user/Desktop/work/avrusb/allegro/AVRUSB500.brd*
G04 Film Name:    BOTTOM*
G04 File Format:  Gerber RS274X*
G04 File Origin:  Cadence Allegro 16.6-S034*
G04 Origin Date:  Fri Jul 19 14:11:37 2019*
G04 *
G04 Layer:  ETCH/BOTTOM*
G04 Layer:  PIN/BOTTOM*
G04 Layer:  VIA CLASS/BOTTOM*
G04 *
G04 Offset:    (0.0000 0.0000)*
G04 Mirror:    No*
G04 Mode:      Positive*
G04 Rotation:  0*
G04 FullContactRelief:  No*
G04 UndefLineWidth:     0.0000*
G04 ================== end FILE IDENTIFICATION RECORD ====================*
%FSLAX55Y55*MOMM*%
%IR0*IPPOS*OFA0.00000B0.00000*MIA0B0*SFA1.00000B1.00000*%
%ADD10O,1.8999X1.1999*%
%ADD13C,.61*%
%ADD12C,1.3211*%
%ADD11R,1.3211X1.3211*%
%ADD14C,1.5751*%
%ADD15R,1.5751X1.5751*%
%ADD16C,.254*%
%ADD17C,.381*%
%ADD18C,.382*%
%ADD20C,2.0836*%
%ADD25O,2.4084X1.7084*%
%ADD24C,1.5756*%
%ADD21R,2.0836X2.0836*%
%ADD19C,1.8296*%
%ADD23R,1.5756X1.5756*%
%ADD22R,1.8296X1.8296*%
G75*
%LPD*%
G75*
G36*
G01X300010Y300010D02*
Y4199990D01*
X10699990D01*
Y300010D01*
X300010D01*
G37*
%LPC*%
G75*
G36*
G01X9351890Y925800D02*
X9486880Y1060790D01*
Y1633210D01*
X9441520Y1678570D01*
G03X9424180Y1671390I-7182J-7184D01*
G01Y1495820D01*
X9215820D01*
Y1650270D01*
X8534380Y2331710D01*
Y2435590D01*
G02X8610620I38120J40910D01*
G01Y2363290D01*
X9269730Y1704180D01*
X9391390D01*
G03X9398570Y1721520I-4J10158D01*
G01X9361640Y1758450D01*
X9358540Y1757210D01*
G02X9415510Y1812400I-38545J96786D01*
G01X9563120Y1664790D01*
Y1029210D01*
X9405800Y871890D01*
X9406790Y868910D01*
G02X9348910Y926790I-86790J-28910D01*
G01X9351890Y925800D01*
G37*
G36*
G01X2571610Y2200200D02*
X2451120Y2079710D01*
Y1222290D01*
X2618120Y1055290D01*
Y963160D01*
G02X2541880I-38120J-83160D01*
G01Y1023710D01*
X2374880Y1190710D01*
Y2111290D01*
X2517700Y2254110D01*
X2516710Y2257090D01*
G02X2574590Y2199210I86790J28910D01*
G01X2571610Y2200200D01*
G37*
G36*
G01X2607890Y1965800D02*
X2685950Y2043860D01*
X2686030Y2045830D01*
G02X2761210Y2095880I55868J-2430D01*
G03X2774880Y2105410I3510J9534D01*
G01Y2162590D01*
G02X2851120I38120J40910D01*
G01Y1081190D01*
X2854190Y1078120D01*
X3088520D01*
Y1131480D01*
X3271480D01*
Y948520D01*
X3088520D01*
Y1001880D01*
X2822610D01*
X2774880Y1049610D01*
Y1981390D01*
G03X2761210Y1990920I-10160J-4D01*
G02X2741990Y1987480I-19311J52480D01*
G01X2739890D01*
X2722640Y1970230D01*
X2720140D01*
X2661800Y1911890D01*
X2662790Y1908910D01*
G02X2604910Y1966790I-86790J-28910D01*
G01X2607890Y1965800D01*
G37*
G36*
G01X3111700Y1415980D02*
X3018340D01*
G02Y1505020I-33840J44520D01*
G01X3074820D01*
X3384480Y1814680D01*
Y2252160D01*
G02X3473520I44520J33840D01*
G01Y1777800D01*
X3111700Y1415980D01*
G37*
G36*
G01X6451890Y1751800D02*
X6579710Y1879620D01*
X7769590D01*
G02Y1803380I40910J-38120D01*
G01X6611290D01*
X6505800Y1697890D01*
X6506790Y1694910D01*
G02X6448910Y1752790I-86790J-28910D01*
G01X6451890Y1751800D01*
G37*
G36*
G01X7638980Y2267560D02*
X6711060Y3195480D01*
X6459920D01*
G02Y3284520I-79920J44520D01*
G01X6747940D01*
X7728020Y2304440D01*
Y2065840D01*
G02X7638980I-44520J-33840D01*
G01Y2267560D01*
G37*
G36*
G01X831490Y2888520D02*
X785990Y2843030D01*
Y2324970D01*
X796990Y2313980D01*
X916980D01*
Y2131020D01*
X734020D01*
Y2251010D01*
X696950Y2288090D01*
Y2879910D01*
X768520Y2951490D01*
Y3071480D01*
X951480D01*
Y2888520D01*
X831490D01*
G37*
G36*
G01X3346210Y2646720D02*
X3398520Y2594410D01*
Y2590870D01*
X3474770Y2514620D01*
X3569410D01*
X3617620Y2562830D01*
X3614450Y2566410D01*
G02X3694420Y2562590I41848J37091D01*
G01Y2531810D01*
X3600990Y2438380D01*
X3443190D01*
X3322280Y2559290D01*
Y2562830D01*
X3314630Y2570480D01*
X2422610D01*
X2374880Y2618210D01*
Y3155340D01*
G02X2451120I38120J83160D01*
G01Y2649790D01*
X2454190Y2646720D01*
X3346210D01*
G37*
G36*
G01X3451590Y2946380D02*
X3342910D01*
G02Y3022620I-40910J38120D01*
G01X3451590D01*
G02Y2946380I40910J-38120D01*
G37*
G36*
G01X2591890Y3785800D02*
X2654210Y3848120D01*
X3071790D01*
X3308110Y3611800D01*
X3311090Y3612790D01*
G02X3253210Y3554910I28910J-86790D01*
G01X3254200Y3557890D01*
X3040210Y3771880D01*
X2685790D01*
X2645800Y3731890D01*
X2646790Y3728910D01*
G02X2588910Y3786790I-86790J-28910D01*
G01X2591890Y3785800D01*
G37*
G36*
G01X3984710Y2692380D02*
X3939010Y2738080D01*
X3936910D01*
G02X3992920Y2794090I90J55920D01*
G01Y2791990D01*
X4016290Y2768620D01*
X4150090D01*
G02Y2692380I40910J-38120D01*
G01X3984710D01*
G37*
G54D20*
X10000000Y2108000D03*
Y2362000D03*
Y1854000D03*
X9320000Y2108000D03*
Y2362000D03*
X5778500Y2159000D03*
Y1651000D03*
Y1905000D03*
G54D25*
X1132000Y630500D03*
X762000D03*
X1132000Y1655500D03*
X762000D03*
G54D24*
X3434000Y1040000D03*
X1114000Y3700000D03*
Y2980000D03*
X1079500Y2222500D03*
G54D21*
X10000000Y1600000D03*
X5778500Y1397000D03*
G54D19*
X10316000Y3800000D03*
X10336000Y3260000D03*
Y840000D03*
X10000000Y2616000D03*
X9300000Y3800000D03*
X9320000Y3260000D03*
Y2616000D03*
X8796000Y840000D03*
X8417500Y3560000D03*
X7380000Y3760000D03*
X7396000Y3240000D03*
X7780000Y840000D03*
X7180000Y2066000D03*
Y880000D03*
X6364000Y3760000D03*
X6420000Y2446000D03*
X5778500Y2413000D03*
X6418000Y880000D03*
X5040000Y3526000D03*
X5397500Y2413000D03*
Y2032000D03*
Y1651000D03*
Y1270000D03*
X4381500Y2413000D03*
Y2032000D03*
Y1651000D03*
Y1270000D03*
X4180000Y3526000D03*
X2576000Y1360000D03*
X1544000Y3700000D03*
X1651000Y3238500D03*
X1587500Y2286000D03*
X1560000Y1880000D03*
Y1360000D03*
X1564000Y880000D03*
G54D23*
X7180000Y2320000D03*
X6420000Y2700000D03*
Y1920000D03*
X5040000Y3780000D03*
X4180000D03*
X3340000D03*
G54D22*
X8100000Y3560000D03*
X860000Y3700000D03*
%LPD*%
G75*
G54D10*
X1132000Y630500D03*
X762000D03*
X1132000Y1655500D03*
X762000D03*
G54D11*
X825500Y2222500D03*
X860000Y2980000D03*
Y3700000D03*
X3180000Y1040000D03*
X3340000Y3780000D03*
X4180000D03*
X5040000D03*
X6420000Y1920000D03*
Y2700000D03*
X7180000Y2320000D03*
X8100000Y3560000D03*
G54D12*
X1079500Y2222500D03*
X1114000Y2980000D03*
Y3700000D03*
X1564000Y880000D03*
X1560000Y1880000D03*
Y1360000D03*
X1587500Y2286000D03*
X1651000Y3238500D03*
X1544000Y3700000D03*
X2580000Y880000D03*
X2576000Y1880000D03*
Y1360000D03*
X2603500Y2286000D03*
X2413000Y3238500D03*
X2560000Y3700000D03*
X3434000Y1040000D03*
X3340000Y3526000D03*
X4180000D03*
X4381500Y1270000D03*
Y1651000D03*
Y2413000D03*
Y2032000D03*
X5397500Y1270000D03*
Y1651000D03*
Y2413000D03*
Y2032000D03*
X5040000Y3526000D03*
X6418000Y880000D03*
X6420000Y1666000D03*
Y2446000D03*
X6380000Y3240000D03*
X6364000Y3760000D03*
X7180000Y880000D03*
Y2066000D03*
X7780000Y840000D03*
X7396000Y3240000D03*
X7380000Y3760000D03*
X8417500Y3560000D03*
X9320000Y840000D03*
X8796000D03*
X9320000Y3260000D03*
X9300000Y3800000D03*
X10336000Y840000D03*
Y3260000D03*
X10316000Y3800000D03*
G54D13*
X2984500Y1460500D03*
X3429000Y2286000D03*
X3256300Y2538100D03*
Y2159000D03*
X2741900Y2043400D03*
X2813000Y2203500D03*
X3302000Y2984500D03*
X3656300Y2603500D03*
X3492500D03*
X3937000Y2794000D03*
X4191000Y2730500D03*
X3492500Y2984500D03*
X7810500Y1841500D03*
X7683500Y2032000D03*
X8445500Y2286000D03*
X8572500Y2095500D03*
Y2476500D03*
G54D14*
X5778500Y1905000D03*
Y1651000D03*
Y2413000D03*
Y2159000D03*
X9320000Y1854000D03*
Y2616000D03*
Y2362000D03*
Y2108000D03*
X10000000Y1854000D03*
Y2616000D03*
Y2362000D03*
Y2108000D03*
G54D15*
X5778500Y1397000D03*
X9320000Y1600000D03*
X10000000D03*
G54D16*
G01X2603500Y2286000D02*
X2413000Y2095500D01*
Y1206500D01*
X2580000Y1039500D01*
Y880000D01*
G01X3656300Y2603500D02*
Y2547600D01*
X3585200Y2476500D01*
X3458980D01*
X3360400Y2575080D01*
Y2578620D01*
X3330420Y2608600D01*
X2438400D01*
X2413000Y2634000D01*
Y3238500D01*
G01X2741900Y2043400D02*
X2706850Y2008350D01*
X2704350D01*
X2576000Y1880000D01*
G01X2560000Y3700000D02*
X2670000Y3810000D01*
X3056000D01*
X3340000Y3526000D01*
G01X2813000Y2203500D02*
Y1065400D01*
X2838400Y1040000D01*
X3180000D01*
G01X3302000Y2984500D02*
X3492500D01*
G01X3937000Y2794000D02*
X4000500Y2730500D01*
X4191000D01*
G01X7810500Y1841500D02*
X6595500D01*
X6420000Y1666000D01*
G01X8572500Y2476500D02*
Y2347500D01*
X9320000Y1600000D01*
G01Y1854000D02*
X9525000Y1649000D01*
Y1045000D01*
X9320000Y840000D01*
G54D17*
G01X1079500Y2138640D02*
Y2222500D01*
G01D02*
Y2306360D01*
G01X995640Y2222500D02*
X1079500D01*
G01D02*
X1163360D01*
G01X1114000Y2896140D02*
Y2980000D01*
G01D02*
Y3063860D01*
G01X1030140Y2980000D02*
X1114000D01*
G01D02*
X1197860D01*
G01X1114000Y3616140D02*
Y3700000D01*
G01D02*
Y3783860D01*
G01X1030140Y3700000D02*
X1114000D01*
G01X3350140Y1040000D02*
X3434000D01*
G01X3340000Y3696140D02*
Y3780000D01*
G01D02*
Y3863860D01*
G01X3434000Y956140D02*
Y1040000D01*
G01D02*
Y1123860D01*
G01Y1040000D02*
X3517860D01*
G01X4096140Y3780000D02*
X4180000D01*
G01Y3696140D02*
Y3780000D01*
G01D02*
Y3863860D01*
G01Y3780000D02*
X4263860D01*
G01X5681940Y2413000D02*
X5778500D01*
G01X5040000Y3696140D02*
Y3780000D01*
G01D02*
Y3863860D01*
G01X4956140Y3780000D02*
X5040000D01*
G01D02*
X5123860D01*
G01X6420000Y1836140D02*
Y1920000D01*
G01Y2616140D02*
Y2700000D01*
G01X5778500Y2316440D02*
Y2413000D01*
G01D02*
X5875060D01*
G01X6420000Y1920000D02*
Y2003860D01*
G01X6336140Y1920000D02*
X6420000D01*
G01D02*
X6503860D01*
G01X6420000Y2700000D02*
Y2783860D01*
G01Y2700000D02*
X6503860D01*
G01X7180000Y2236140D02*
Y2320000D01*
G01D02*
Y2403860D01*
G01X7096140Y2320000D02*
X7180000D01*
G01D02*
X7263860D01*
G01X9320000Y2519440D02*
Y2616000D01*
G01D02*
Y2712560D01*
G01X9223440Y2616000D02*
X9320000D01*
G01X10000000Y2519440D02*
Y2616000D01*
G01D02*
Y2712560D01*
G01Y2616000D02*
X10096560D01*
G54D18*
G01X860000Y2980000D02*
X741470Y2861470D01*
Y2306530D01*
X825500Y2222500D01*
G01X1079500D02*
X1014820Y2287180D01*
G01D02*
Y2880820D01*
G01D02*
X1114000Y2980000D01*
G01Y3700000D02*
X1223500D01*
G01D02*
X1460500Y3937000D01*
X3048000D01*
X3205000Y3780000D01*
G01X2984500Y1460500D02*
X3093260D01*
X3429000Y1796240D01*
Y2286000D01*
G01X3256300Y2159000D02*
Y2538100D01*
G01X3340000Y3780000D02*
X3467100D01*
G01X3205000D02*
X3340000D01*
G01X3467100D02*
X3619500Y3627600D01*
Y2730500D01*
X3492500Y2603500D01*
G01X5040000Y3780000D02*
X5778500Y3041500D01*
G01X6420000Y1920000D02*
X6286500Y2053500D01*
G01X5778500Y2413000D02*
X6065500Y2700000D01*
G01X6286500Y2566500D02*
X6420000Y2700000D01*
G01X5778500Y3041500D02*
Y2413000D01*
G01X6286500Y2053500D02*
Y2566500D01*
G01X7683500Y2032000D02*
Y2286000D01*
X6729500Y3240000D01*
X6380000D01*
G01X6065500Y2700000D02*
X6420000D01*
G01X8572500Y2095500D02*
X8445500Y2222500D01*
Y2286000D01*
G01X9320000Y2616000D02*
X10000000D01*
M02*
