G04 ================== begin FILE IDENTIFICATION RECORD ==================*
G04 Layout Name:  C:/Users/user/Desktop/work/avrusb/allegro/AVRUSB500.brd*
G04 Film Name:    Deign*
G04 File Format:  Gerber RS274X*
G04 File Origin:  Cadence Allegro 16.6-S034*
G04 Origin Date:  Fri Jul 19 14:11:37 2019*
G04 *
G04 Layer:  VIA CLASS/BOTTOM*
G04 Layer:  VIA CLASS/TOP*
G04 Layer:  ROUTE KEEPOUT/ALL*
G04 Layer:  ROUTE KEEPIN/ALL*
G04 Layer:  REF DES/SILKSCREEN_TOP*
G04 Layer:  REF DES/SILKSCREEN_BOTTOM*
G04 Layer:  PIN/BOTTOM*
G04 Layer:  PIN/TOP*
G04 Layer:  PACKAGE KEEPIN/ALL*
G04 Layer:  PACKAGE GEOMETRY/PIN_NUMBER*
G04 Layer:  PACKAGE GEOMETRY/SILKSCREEN_TOP*
G04 Layer:  PACKAGE GEOMETRY/SILKSCREEN_BOTTOM*
G04 Layer:  PACKAGE GEOMETRY/SOLDERMASK_TOP*
G04 Layer:  PACKAGE GEOMETRY/SOLDERMASK_BOTTOM*
G04 Layer:  PACKAGE GEOMETRY/PASTEMASK_TOP*
G04 Layer:  PACKAGE GEOMETRY/PASTEMASK_BOTTOM*
G04 Layer:  ETCH/BOTTOM*
G04 Layer:  ETCH/TOP*
G04 Layer:  BOARD GEOMETRY/OUTLINE*
G04 Layer:  BOARD GEOMETRY/SILKSCREEN_TOP*
G04 Layer:  BOARD GEOMETRY/SILKSCREEN_BOTTOM*
G04 Layer:  BOARD GEOMETRY/SOLDERMASK_TOP*
G04 Layer:  BOARD GEOMETRY/SOLDERMASK_BOTTOM*
G04 *
G04 Offset:    (0.0000 0.0000)*
G04 Mirror:    No*
G04 Mode:      Positive*
G04 Rotation:  0*
G04 FullContactRelief:  No*
G04 UndefLineWidth:     0.0000*
G04 ================== end FILE IDENTIFICATION RECORD ====================*
%FSLAX55Y55*MOMM*%
%IR0*IPPOS*OFA0.00000B0.00000*MIA0B0*SFA1.00000B1.00000*%
%ADD12O,1.8999X1.1999*%
%ADD11R,1.7201X.4*%
%ADD17C,.61*%
%ADD15O,.4569X1.778*%
%ADD19O,1.778X.4569*%
%ADD16R,.4569X1.778*%
%ADD18R,1.778X.4569*%
%ADD10R,1.7201X1.1001*%
%ADD14C,1.3211*%
%ADD13R,1.3211X1.3211*%
%ADD20C,1.5751*%
%ADD21R,1.5751X1.5751*%
%ADD22C,.2*%
%ADD23C,.203*%
%ADD24C,.254*%
%ADD25C,.381*%
%ADD26C,.382*%
%ADD31R,1.9784X.6572*%
%ADD34O,2.1004X1.4004*%
%ADD32C,2.0836*%
%ADD35O,2.4084X1.7084*%
%ADD29C,1.5756*%
%ADD36R,2.0836X2.0836*%
%ADD27C,1.8296*%
%ADD33R,.7624X.7624*%
%ADD37R,.7624X.8904*%
%ADD28R,1.5756X1.5756*%
%ADD30R,1.8296X1.8296*%
G75*
%LPD*%
G75*
G36*
G01X300010Y300010D02*
Y4199990D01*
X10699990D01*
Y300010D01*
X300010D01*
G37*
%LPC*%
G75*
G36*
G01X10344910Y3713210D02*
G02X10402790Y3771090I-28910J86790D01*
G01X10402640Y3770640D01*
G02X10345360Y3713360I-86640J29360D01*
G01X10344910Y3713210D01*
G37*
G36*
G01X2646790Y3728910D02*
G02X2588910Y3786790I-86790J-28910D01*
G01X2589360Y3786640D01*
G02X2646640Y3729360I-29360J-86640D01*
G01X2646790Y3728910D01*
G37*
G36*
G01X4137450Y3606980D02*
G02X4093360Y3496640I42550J-80981D01*
G01X4093210Y3497090D01*
G02X4137450Y3606980I86791J28909D01*
G37*
G36*
G01X7424910Y3153210D02*
G02X7482790Y3211090I-28910J86790D01*
G01X7482640Y3210640D01*
G02X7425360Y3153360I-86640J29360D01*
G01X7424910Y3153210D01*
G37*
G36*
G01X6357730Y3328730D02*
G02X6300080Y3195480I22268J-88730D01*
G02X6357300Y3328620I79920J44518D01*
G01X6357730Y3328730D01*
G37*
G36*
G01X1679910Y3151710D02*
G02X1737790Y3209590I-28910J86790D01*
G01X1737640Y3209140D01*
G02X1680360Y3151860I-86640J29360D01*
G01X1679910Y3151710D01*
G37*
G36*
G01X2451120Y3073380D02*
X2374880D01*
Y3155340D01*
G02X2355190Y3167600I38118J83161D01*
G03X2355130Y3167650I-6534J-7779D01*
G02X2470870I57870J70850D01*
G03X2470810Y3167600I6474J-7829D01*
G02X2451120Y3155340I-57808J70901D01*
G01Y3073380D01*
G37*
G36*
G01X3319970Y3020820D02*
G02X3265680Y2966530I-17970J-36320D01*
G01X3265310Y2967280D01*
X3246120Y2986470D01*
G02X3300030Y3040380I55880J-1970D01*
G01X3319220Y3021190D01*
X3319970Y3020820D01*
G37*
G36*
G01X3515220Y2933410D02*
G02X3451590Y2946380I-22723J51091D01*
G01X3378180D01*
Y3022620D01*
X3451590D01*
G02X3454500Y3025520I40900J-38131D01*
G03X3470180Y3018320I10079J1276D01*
G02X3515220Y2950950I22330J-33812D01*
G01Y2933410D01*
G37*
G36*
G01X3999220Y2692380D02*
X3984710D01*
X3939010Y2738080D01*
X3936910D01*
G02X3930060Y2738510I72J55921D01*
G01X3940130Y2748580D01*
X3935190Y2753520D01*
G02X3931760Y2753820I1812J40480D01*
G01X3929280Y2754140D01*
X3916940Y2741800D01*
G02X3884800Y2773940I20060J52200D01*
G01X3897140Y2786280D01*
X3896820Y2788760D01*
G02X3975850Y2805520I40180J5245D01*
G03X3992490Y2800950I9740J2887D01*
G02X3992920Y2794090I-55492J-6922D01*
G01Y2791990D01*
X4016290Y2768620D01*
X4067990D01*
X3999220Y2699850D01*
Y2692380D01*
G37*
G36*
G01X4227320Y2712530D02*
G02X4173030Y2766820I-36320J17970D01*
G01X4173780Y2767190D01*
X4192970Y2786380D01*
G02X4246880Y2732470I-1970J-55880D01*
G01X4227690Y2713280D01*
X4227320Y2712530D01*
G37*
G36*
G01X3337880Y2646720D02*
G02X3334720I-1580J35525D01*
G01X3337880D01*
G37*
G36*
G01X3707180Y2626700D02*
G02Y2580310I-50882J-23195D01*
G01Y2626700D01*
G37*
G36*
G01X2762980Y2570480D02*
X2422610D01*
X2408570Y2584520D01*
X2748940D01*
X2762980Y2570480D01*
G37*
G36*
G01X3679020Y2637050D02*
G02X3633580I-22720J-33550D01*
G01Y2654600D01*
G02X3679020I22720J-51098D01*
G01Y2637050D01*
G37*
G36*
G01X9278690Y2697620D02*
G02X9255950Y2550680I41309J-81622D01*
G02X9278690Y2697620I64053J65317D01*
G37*
G36*
G01X3600990Y2438380D02*
X3443190D01*
X3408950Y2472620D01*
X3635230D01*
X3600990Y2438380D01*
G37*
G36*
G01X8538950Y2499220D02*
G02Y2453780I33550J-22720D01*
G01X8521410D01*
G02Y2499220I51090J22720D01*
G01X8538950D01*
G37*
G36*
G01X6333210Y2417090D02*
G02X6391090Y2359210I86790J28910D01*
G01X6390640Y2359360D01*
G02X6333360Y2416640I29360J86640D01*
G01X6333210Y2417090D01*
G37*
G36*
G01X7690580Y2341880D02*
X7628870D01*
X7214870Y2755880D01*
X7150660D01*
X7010920Y2895620D01*
X7136840D01*
X7690580Y2341880D01*
G37*
G36*
G01X4310020Y2439060D02*
G02Y2386940I71480J-26060D01*
G01X4308800Y2390280D01*
X4299450D01*
X4294350Y2385180D01*
G02X4292890Y2435720I87150J27809D01*
G01X4308800D01*
X4310020Y2439060D01*
G37*
G36*
G01X5426410Y2326210D02*
G02X5484290Y2384090I-28910J86790D01*
G01X5484140Y2383640D01*
G02X5426860Y2326360I-86640J29360D01*
G01X5426410Y2326210D01*
G37*
G36*
G01X8706770Y2267140D02*
X8663540D01*
G02X8646080Y2327830I8J32859D01*
G01X8706770Y2267140D01*
G37*
G36*
G01X9415510Y2403600D02*
G02X9247300Y2287380I-95515J-41596D01*
G02X9415510Y2403600I72697J74622D01*
G37*
G36*
G01X3455610Y2316560D02*
G02X3400820Y2256880I-26610J-30560D01*
G01X3381260D01*
G02X3458360Y2333590I47741J29117D01*
G03X3455610Y2316560I3923J-9370D01*
G37*
G36*
G01X2632410Y2199210D02*
G02X2516760Y2256940I-28909J86791D01*
G01X2516710Y2257090D01*
G02X2632410Y2199210I86790J28910D01*
G37*
G36*
G01X1500710Y2257090D02*
G02X1558590Y2199210I86790J28910D01*
G01X1558140Y2199360D01*
G02X1500860Y2256640I29360J86640D01*
G01X1500710Y2257090D01*
G37*
G36*
G01X4294710Y2060910D02*
G03X4293250Y2056080I86802J-28874D01*
G02X4294860Y2061360I88266J-24029D01*
G01X4294710Y2060910D01*
G37*
G36*
G01X9415510Y2149600D02*
G02X9260180Y2022710I-95516J-41593D01*
G02X9415510Y2149600I59817J85293D01*
G37*
G36*
G01X7711680Y2002880D02*
G02Y2061120I-28180J29120D01*
G01X7731240D01*
G02Y2002880I-47740J-29120D01*
G01X7711680D01*
G37*
G36*
G01X2741990Y1987480D02*
X2741500D01*
G02X2720600Y2095100I396J55916D01*
G03X2720880Y2095220I-3862J9399D01*
G02X2761210Y2095880I21018J-51820D01*
G03X2774880Y2105410I3510J9534D01*
G01Y2162590D01*
G02X2851120I38120J40910D01*
G01Y2005280D01*
X2782810D01*
G02X2761240Y1990930I-40915J38115D01*
G03X2761210Y1990920I3198J-9643D01*
G02X2741990Y1987480I-19311J52480D01*
G37*
G36*
G01X4367310Y1957250D02*
G03X4355720Y1944230I-1896J-9981D01*
G02X4293730Y2006220I25780J87770D01*
G03X4306750Y2017810I3039J9694D01*
G02X4312530Y2064120I74748J14186D01*
G01X4314030Y2067340D01*
X4302780Y2078590D01*
G02X4334910Y2110720I78720J-46590D01*
G01X4346160Y2099470D01*
X4349380Y2100970D01*
G02X4367310Y1957250I32116J-68972D01*
G37*
G36*
G01X5426410Y1945210D02*
G02X5484290Y2003090I-28910J86790D01*
G01X5484140Y2002640D01*
G02X5426860Y1945360I-86640J29360D01*
G01X5426410Y1945210D01*
G37*
G36*
G01X9158030Y1815880D02*
X9127110D01*
X9001210Y1941780D01*
X8924310D01*
X8693230Y2172860D01*
X8710290D01*
G02X8720880Y2177110I19332J-32852D01*
G01X8724800Y2178030D01*
Y2187140D01*
X8678950D01*
X8616970Y2249120D01*
X8630680D01*
Y2252860D01*
X8721050D01*
X9158030Y1815880D01*
G37*
G36*
G01X3473520Y1988440D02*
Y1808960D01*
G02X3463440Y1832640I22781J23683D01*
G01Y1964760D01*
G02X3473520Y1988440I32861J-3D01*
G37*
G36*
G01X7648530Y1803380D02*
X7540710D01*
X7464470Y1879620D01*
X7572290D01*
X7648530Y1803380D01*
G37*
G36*
G01X7844050Y1818780D02*
G02Y1864220I-33550J22720D01*
G01X7861590D01*
G02Y1818780I-51090J-22720D01*
G01X7844050D01*
G37*
G36*
G01X3449160Y1832640D02*
G02X3384480Y1824440I-32860J4D01*
G01Y1972960D01*
G02X3449160Y1964760I31820J-8204D01*
G01Y1832640D01*
G37*
G36*
G01X2662790Y1908910D02*
G02X2604910Y1966790I-86790J-28910D01*
G01X2605360Y1966640D01*
G02X2662640Y1909360I-29360J-86640D01*
G01X2662790Y1908910D01*
G37*
G36*
G01X1604720Y1800200D02*
G02X1531090Y1793210I-44723J79801D01*
G01X1530780Y1793310D01*
G02X1604720Y1800200I29213J86689D01*
G37*
G36*
G01X9358540Y1757210D02*
G02X9273330Y1760850I-38548J96786D01*
G02X9223040Y1815880I46672J93146D01*
G02X9415510Y1812400I96956J38116D01*
G01X9415520Y1812390D01*
G02X9359500Y1757600I-95510J41620D01*
G01X9358540Y1757210D01*
G37*
G36*
G01X4292620Y1672650D02*
Y1629350D01*
G02Y1672650I88880J21650D01*
G37*
G36*
G01X4407560Y1722480D02*
G02X4355440I-26060J-71480D01*
G01X4358780Y1723700D01*
Y1739610D01*
G02X4404220I22720J-88610D01*
G01Y1723700D01*
X4407560Y1722480D01*
G37*
G36*
G01X6506790Y1694910D02*
G02X6448910Y1752790I-86790J-28910D01*
G01X6449470Y1752610D01*
G02X6506610Y1695470I-29470J-86610D01*
G01X6506790Y1694910D01*
G37*
G36*
G01X9563120Y1561880D02*
X9486880D01*
Y1633210D01*
X9481970Y1638120D01*
X9563120D01*
Y1561880D01*
G37*
G36*
G01X2993460Y1405300D02*
G02X2929300Y1469460I-8960J55200D01*
G01X2929330Y1469630D01*
G02X2993630Y1405330I55170J-9130D01*
G01X2993460Y1405300D01*
G37*
G36*
G01X1510500Y1421290D02*
G02X1502240Y1306420I49498J-61291D01*
G03X1487610Y1306700I-7450J-6906D01*
G01X1486480Y1305570D01*
G02X1495120Y1424490I73521J54432D01*
G03X1510500Y1421290I9002J4705D01*
G37*
G36*
G01X5484290Y1298910D02*
G02X5426410Y1356790I-86790J-28910D01*
G01X5426860Y1356640D01*
G02X5484140Y1299360I-29360J-86640D01*
G01X5484290Y1298910D01*
G37*
G36*
G01X4352590Y1356790D02*
G02X4294710Y1298910I28910J-86790D01*
G01X4294860Y1299360D01*
G02X4352140Y1356640I86640J-29360D01*
G01X4352590Y1356790D01*
G37*
G36*
G01X2451120Y2187530D02*
Y1114470D01*
X2374880Y1190710D01*
Y2111290D01*
X2451120Y2187530D01*
G37*
G36*
G01X1650790Y908910D02*
G02X1592910Y966790I-86790J-28910D01*
G01X1593360Y966640D01*
G02X1650640Y909360I-29360J-86640D01*
G01X1650790Y908910D01*
G37*
G36*
G01X6458120Y962210D02*
G02X6410070Y788860I-40121J-82214D01*
G02X6458120Y962210I7930J91136D01*
G37*
G36*
G01X9406790Y868910D02*
G02X9348910Y926790I-86790J-28910D01*
G01X9349360Y926640D01*
G02X9406640Y869360I-29360J-86640D01*
G01X9406790Y868910D01*
G37*
G36*
G01X7866790D02*
G02X7808910Y926790I-86790J-28910D01*
G01X7809360Y926640D01*
G02X7866640Y869360I-29360J-86640D01*
G01X7866790Y868910D01*
G37*
G54D31*
X3111500Y2603500D03*
G54D34*
X762000Y1655500D03*
X1132000Y630500D03*
X762000D03*
G54D32*
X10000000Y2362000D03*
X5778500Y2159000D03*
X10000000Y2108000D03*
X5778500Y1905000D03*
X10000000Y1854000D03*
X5778500Y1651000D03*
G54D35*
X1132000Y1655500D03*
G54D29*
X1114000Y3700000D03*
Y2980000D03*
X1079500Y2222500D03*
X3434000Y1040000D03*
G54D36*
X10000000Y1600000D03*
X9320000D03*
X5778500Y1397000D03*
G54D27*
X9300000Y3800000D03*
X7380000Y3760000D03*
X6364000D03*
X1544000Y3700000D03*
X8417500Y3560000D03*
X5040000Y3526000D03*
X3340000D03*
X10336000Y3260000D03*
X9320000D03*
X10000000Y2616000D03*
X5778500Y2413000D03*
X7180000Y2066000D03*
X5397500Y1651000D03*
X2576000Y1360000D03*
X7180000Y880000D03*
X2580000D03*
X10336000Y840000D03*
X8796000D03*
G54D33*
X7180000Y1841500D03*
G54D37*
X2813000Y1360000D03*
G54D28*
X5040000Y3780000D03*
X4180000D03*
X3340000D03*
X6420000Y2700000D03*
X7180000Y2320000D03*
X6420000Y1920000D03*
G54D30*
X860000Y3700000D03*
X8100000Y3560000D03*
X860000Y2980000D03*
X825500Y2222500D03*
X3180000Y1040000D03*
%LPD*%
G75*
G36*
G01X1312000Y1773000D02*
X592000D01*
Y503000D01*
X1312000D01*
Y1773000D01*
G37*
G54D10*
X1132000Y913000D03*
Y1373000D03*
G54D20*
X5778500Y1905000D03*
D03*
Y1651000D03*
D03*
Y2413000D03*
D03*
Y2159000D03*
D03*
X9320000Y1854000D03*
D03*
Y2616000D03*
D03*
Y2362000D03*
D03*
Y2108000D03*
D03*
X10000000Y1854000D03*
D03*
Y2616000D03*
D03*
Y2362000D03*
D03*
Y2108000D03*
D03*
G54D11*
X1132000Y1013000D03*
Y1078000D03*
Y1273000D03*
Y1208000D03*
Y1143000D03*
G54D21*
X5778500Y1397000D03*
D03*
X9320000Y1600000D03*
D03*
X10000000D03*
D03*
G54D12*
X1132000Y630500D03*
D03*
X762000D03*
D03*
X1132000Y1655500D03*
D03*
X762000D03*
D03*
G54D22*
G01X762630Y2629400D02*
X754630Y2635400D01*
X745300Y2639400D01*
X734630D01*
X722630Y2633400D01*
X713300Y2623400D01*
X706630Y2611400D01*
X701300Y2591400D01*
X699970Y2573400D01*
X702630Y2555400D01*
X706630Y2543400D01*
X714630Y2531400D01*
X723970Y2523400D01*
X733300Y2519400D01*
X742630D01*
X751970Y2523400D01*
X759970Y2529400D01*
X766630Y2537400D01*
G01X805830Y2533400D02*
X815170Y2523400D01*
X825830Y2519400D01*
X836500Y2523400D01*
X845830Y2535400D01*
X852500Y2553400D01*
X855170Y2571400D01*
Y2593400D01*
X852500Y2611400D01*
X845830Y2627400D01*
X837830Y2635400D01*
X828500Y2639400D01*
X817830Y2635400D01*
X809830Y2627400D01*
X804500Y2615400D01*
X801830Y2599400D01*
X804500Y2585400D01*
X811170Y2571400D01*
X819170Y2563400D01*
X828500Y2561400D01*
X839170Y2565400D01*
X847170Y2575400D01*
X855170Y2593400D01*
G01X797130Y3386900D02*
X789130Y3392900D01*
X779800Y3396900D01*
X769130D01*
X757130Y3390900D01*
X747800Y3380900D01*
X741130Y3368900D01*
X735800Y3348900D01*
X734470Y3330900D01*
X737130Y3312900D01*
X741130Y3300900D01*
X749130Y3288900D01*
X758470Y3280900D01*
X767800Y3276900D01*
X777130D01*
X786470Y3280900D01*
X794470Y3286900D01*
X801130Y3294900D01*
G01X833670D02*
X841670Y3284900D01*
X851000Y3278900D01*
X863000Y3276900D01*
X875000Y3280900D01*
X884330Y3288900D01*
X891000Y3302900D01*
X892330Y3318900D01*
X889670Y3334900D01*
X883000Y3344900D01*
X873670Y3352900D01*
X864330Y3354900D01*
X855000Y3352900D01*
X843000Y3344900D01*
X847000Y3396900D01*
X883000D01*
G01X797130Y4106900D02*
X789130Y4112900D01*
X779800Y4116900D01*
X769130D01*
X757130Y4110900D01*
X747800Y4100900D01*
X741130Y4088900D01*
X735800Y4068900D01*
X734470Y4050900D01*
X737130Y4032900D01*
X741130Y4020900D01*
X749130Y4008900D01*
X758470Y4000900D01*
X767800Y3996900D01*
X777130D01*
X786470Y4000900D01*
X794470Y4006900D01*
X801130Y4014900D01*
G01X837670Y4046900D02*
X847000Y4060900D01*
X855000Y4068900D01*
X865670Y4072900D01*
X875000Y4068900D01*
X881670Y4060900D01*
X887000Y4048900D01*
X888330Y4034900D01*
X887000Y4022900D01*
X881670Y4010900D01*
X873670Y4000900D01*
X864330Y3996900D01*
X853670Y4000900D01*
X844330Y4012900D01*
X839000Y4030900D01*
X837670Y4050900D01*
X840330Y4076900D01*
X844330Y4090900D01*
X851000Y4104900D01*
X860330Y4114900D01*
X869670Y4116900D01*
X879000Y4112900D01*
X885670Y4102900D01*
G01X1853830Y1498100D02*
Y1618100D01*
X1887170D01*
X1897830Y1612100D01*
X1904500Y1604100D01*
X1907170Y1588100D01*
X1904500Y1572100D01*
X1896500Y1562100D01*
X1887170Y1556100D01*
X1853830D01*
G01X1887170D02*
X1907170Y1498100D01*
G01X1975700D02*
X1985030Y1500100D01*
X1995700Y1506100D01*
X2002370Y1516100D01*
X2005030Y1530100D01*
X2002370Y1544100D01*
X1994370Y1556100D01*
X1982370Y1562100D01*
X1969030D01*
X1961030Y1566100D01*
X1954370Y1576100D01*
X1951700Y1590100D01*
X1955700Y1604100D01*
X1965030Y1614100D01*
X1975700Y1618100D01*
X1986370Y1614100D01*
X1995700Y1604100D01*
X1999700Y1590100D01*
X1997030Y1576100D01*
X1990370Y1566100D01*
X1982370Y1562100D01*
X1969030D01*
X1957030Y1556100D01*
X1949030Y1544100D01*
X1946370Y1530100D01*
X1949030Y1516100D01*
X1955700Y1506100D01*
X1966370Y1500100D01*
X1975700Y1498100D01*
G01X1853830Y2018100D02*
Y2138100D01*
X1887170D01*
X1897830Y2132100D01*
X1904500Y2124100D01*
X1907170Y2108100D01*
X1904500Y2092100D01*
X1896500Y2082100D01*
X1887170Y2076100D01*
X1853830D01*
G01X1887170D02*
X1907170Y2018100D01*
G01X1946370Y2036100D02*
X1954370Y2026100D01*
X1963700Y2020100D01*
X1975700Y2018100D01*
X1987700Y2022100D01*
X1997030Y2030100D01*
X2003700Y2044100D01*
X2005030Y2060100D01*
X2002370Y2076100D01*
X1995700Y2086100D01*
X1986370Y2094100D01*
X1977030Y2096100D01*
X1967700Y2094100D01*
X1955700Y2086100D01*
X1959700Y2138100D01*
X1995700D01*
G01X1812800Y3503600D02*
Y3557600D01*
X1786130Y3623600D01*
G01X1839470D02*
X1812800Y3557600D01*
G01X1882670Y3603600D02*
X1890670Y3615600D01*
X1900000Y3621600D01*
X1910670Y3623600D01*
X1924000Y3619600D01*
X1933330Y3609600D01*
X1936000Y3597600D01*
X1934670Y3585600D01*
X1929330Y3575600D01*
X1902670Y3555600D01*
X1890670Y3541600D01*
X1882670Y3521600D01*
X1880000Y3503600D01*
X1936000D01*
G01X2286170Y741900D02*
Y621900D01*
X2252830D01*
X2242170Y627900D01*
X2235500Y635900D01*
X2232830Y651900D01*
X2235500Y667900D01*
X2243500Y677900D01*
X2252830Y683900D01*
X2286170D01*
G01X2252830D02*
X2232830Y741900D01*
G01X2166970D02*
X2164300Y715900D01*
X2160300Y693900D01*
X2154970Y673900D01*
X2148300Y651900D01*
X2137630Y621900D01*
X2190970D01*
G01X1881330Y2424100D02*
Y2544100D01*
X1914670D01*
X1925330Y2538100D01*
X1932000Y2530100D01*
X1934670Y2514100D01*
X1932000Y2498100D01*
X1924000Y2488100D01*
X1914670Y2482100D01*
X1881330D01*
G01X1914670D02*
X1934670Y2424100D01*
G01X1977870Y2474100D02*
X1987200Y2488100D01*
X1995200Y2496100D01*
X2005870Y2500100D01*
X2015200Y2496100D01*
X2021870Y2488100D01*
X2027200Y2476100D01*
X2028530Y2462100D01*
X2027200Y2450100D01*
X2021870Y2438100D01*
X2013870Y2428100D01*
X2004530Y2424100D01*
X1993870Y2428100D01*
X1984530Y2440100D01*
X1979200Y2458100D01*
X1977870Y2478100D01*
X1980530Y2504100D01*
X1984530Y2518100D01*
X1991200Y2532100D01*
X2000530Y2542100D01*
X2009870Y2544100D01*
X2019200Y2540100D01*
X2025870Y2530100D01*
G01X2266170Y3561900D02*
Y3441900D01*
X2232830D01*
X2222170Y3447900D01*
X2215500Y3455900D01*
X2212830Y3471900D01*
X2215500Y3487900D01*
X2223500Y3497900D01*
X2232830Y3503900D01*
X2266170D01*
G01X2232830D02*
X2212830Y3561900D01*
G01X2144300D02*
Y3441900D01*
X2160300Y3465900D01*
G01Y3561900D02*
X2128300D01*
G01X3117130Y1446900D02*
X3109130Y1452900D01*
X3099800Y1456900D01*
X3089130D01*
X3077130Y1450900D01*
X3067800Y1440900D01*
X3061130Y1428900D01*
X3055800Y1408900D01*
X3054470Y1390900D01*
X3057130Y1372900D01*
X3061130Y1360900D01*
X3069130Y1348900D01*
X3078470Y1340900D01*
X3087800Y1336900D01*
X3097130D01*
X3106470Y1340900D01*
X3114470Y1346900D01*
X3121130Y1354900D01*
G01X3199000Y1336900D02*
Y1456900D01*
X3149670Y1370900D01*
X3216330D01*
G01X3191100Y3238830D02*
X3105100D01*
X3087100Y3233500D01*
X3075100Y3222830D01*
X3071100Y3209500D01*
X3075100Y3196170D01*
X3087100Y3185500D01*
X3105100Y3180170D01*
X3191100D01*
G01X3071100Y3114300D02*
X3191100D01*
X3167100Y3130300D01*
G01X3071100D02*
Y3098300D01*
G01X3746900Y3842870D02*
X3752900Y3850870D01*
X3756900Y3860200D01*
Y3870870D01*
X3750900Y3882870D01*
X3740900Y3892200D01*
X3728900Y3898870D01*
X3708900Y3904200D01*
X3690900Y3905530D01*
X3672900Y3902870D01*
X3660900Y3898870D01*
X3648900Y3890870D01*
X3640900Y3881530D01*
X3636900Y3872200D01*
Y3862870D01*
X3640900Y3853530D01*
X3646900Y3845530D01*
X3654900Y3838870D01*
G01X3636900Y3777000D02*
X3756900D01*
X3732900Y3793000D01*
G01X3636900D02*
Y3761000D01*
G01X4675330Y1408100D02*
Y1528100D01*
X4708670D01*
X4719330Y1522100D01*
X4726000Y1514100D01*
X4728670Y1498100D01*
X4726000Y1482100D01*
X4718000Y1472100D01*
X4708670Y1466100D01*
X4675330D01*
G01X4708670D02*
X4728670Y1408100D01*
G01X4797200D02*
Y1528100D01*
X4781200Y1504100D01*
G01Y1408100D02*
X4813200D01*
G01X4908400D02*
Y1528100D01*
X4859070Y1442100D01*
X4925730D01*
G01X4675330Y1789100D02*
Y1909100D01*
X4708670D01*
X4719330Y1903100D01*
X4726000Y1895100D01*
X4728670Y1879100D01*
X4726000Y1863100D01*
X4718000Y1853100D01*
X4708670Y1847100D01*
X4675330D01*
G01X4708670D02*
X4728670Y1789100D01*
G01X4813200D02*
Y1909100D01*
X4763870Y1823100D01*
X4830530D01*
G01X4675330Y2551100D02*
Y2671100D01*
X4708670D01*
X4719330Y2665100D01*
X4726000Y2657100D01*
X4728670Y2641100D01*
X4726000Y2625100D01*
X4718000Y2615100D01*
X4708670Y2609100D01*
X4675330D01*
G01X4708670D02*
X4728670Y2551100D01*
G01X4771870Y2651100D02*
X4779870Y2663100D01*
X4789200Y2669100D01*
X4799870Y2671100D01*
X4813200Y2667100D01*
X4822530Y2657100D01*
X4825200Y2645100D01*
X4823870Y2633100D01*
X4818530Y2623100D01*
X4791870Y2603100D01*
X4779870Y2589100D01*
X4771870Y2569100D01*
X4769200Y2551100D01*
X4825200D01*
G01X4675330Y2170100D02*
Y2290100D01*
X4708670D01*
X4719330Y2284100D01*
X4726000Y2276100D01*
X4728670Y2260100D01*
X4726000Y2244100D01*
X4718000Y2234100D01*
X4708670Y2228100D01*
X4675330D01*
G01X4708670D02*
X4728670Y2170100D01*
G01X4767870Y2194100D02*
X4775870Y2180100D01*
X4786530Y2172100D01*
X4798530Y2170100D01*
X4809200Y2172100D01*
X4819870Y2182100D01*
X4826530Y2194100D01*
X4827870Y2206100D01*
X4825200Y2220100D01*
X4815870Y2230100D01*
X4806530Y2234100D01*
X4794530D01*
G01X4806530D02*
X4814530Y2240100D01*
X4821200Y2250100D01*
X4823870Y2262100D01*
X4821200Y2274100D01*
X4814530Y2284100D01*
X4802530Y2290100D01*
X4790530Y2288100D01*
X4778530Y2280100D01*
G01X4586900Y3842870D02*
X4592900Y3850870D01*
X4596900Y3860200D01*
Y3870870D01*
X4590900Y3882870D01*
X4580900Y3892200D01*
X4568900Y3898870D01*
X4548900Y3904200D01*
X4530900Y3905530D01*
X4512900Y3902870D01*
X4500900Y3898870D01*
X4488900Y3890870D01*
X4480900Y3881530D01*
X4476900Y3872200D01*
Y3862870D01*
X4480900Y3853530D01*
X4486900Y3845530D01*
X4494900Y3838870D01*
G01X4576900Y3802330D02*
X4588900Y3794330D01*
X4594900Y3785000D01*
X4596900Y3774330D01*
X4592900Y3761000D01*
X4582900Y3751670D01*
X4570900Y3749000D01*
X4558900Y3750330D01*
X4548900Y3755670D01*
X4528900Y3782330D01*
X4514900Y3794330D01*
X4494900Y3802330D01*
X4476900Y3805000D01*
Y3749000D01*
G01X5446900Y3842870D02*
X5452900Y3850870D01*
X5456900Y3860200D01*
Y3870870D01*
X5450900Y3882870D01*
X5440900Y3892200D01*
X5428900Y3898870D01*
X5408900Y3904200D01*
X5390900Y3905530D01*
X5372900Y3902870D01*
X5360900Y3898870D01*
X5348900Y3890870D01*
X5340900Y3881530D01*
X5336900Y3872200D01*
Y3862870D01*
X5340900Y3853530D01*
X5346900Y3845530D01*
X5354900Y3838870D01*
G01X5360900Y3806330D02*
X5346900Y3798330D01*
X5338900Y3787670D01*
X5336900Y3775670D01*
X5338900Y3765000D01*
X5348900Y3754330D01*
X5360900Y3747670D01*
X5372900Y3746330D01*
X5386900Y3749000D01*
X5396900Y3758330D01*
X5400900Y3767670D01*
Y3779670D01*
G01Y3767670D02*
X5406900Y3759670D01*
X5416900Y3753000D01*
X5428900Y3750330D01*
X5440900Y3753000D01*
X5450900Y3759670D01*
X5456900Y3771670D01*
X5454900Y3783670D01*
X5446900Y3795670D01*
G01X5868370Y1209300D02*
X5861700Y1221300D01*
X5853700Y1229300D01*
X5844370Y1233300D01*
X5833700Y1229300D01*
X5825700Y1221300D01*
X5817700Y1209300D01*
X5815030Y1193300D01*
Y1113300D01*
G01X5746500Y1233300D02*
Y1113300D01*
X5762500Y1137300D01*
G01Y1233300D02*
X5730500D01*
G01X7018200Y614900D02*
Y560900D01*
X7044870Y494900D01*
G01X6991530D02*
X7018200Y560900D01*
G01X6923000Y614900D02*
Y494900D01*
X6939000Y518900D01*
G01Y614900D02*
X6907000D01*
G01X6826900Y2762870D02*
X6832900Y2770870D01*
X6836900Y2780200D01*
Y2790870D01*
X6830900Y2802870D01*
X6820900Y2812200D01*
X6808900Y2818870D01*
X6788900Y2824200D01*
X6770900Y2825530D01*
X6752900Y2822870D01*
X6740900Y2818870D01*
X6728900Y2810870D01*
X6720900Y2801530D01*
X6716900Y2792200D01*
Y2782870D01*
X6720900Y2773530D01*
X6726900Y2765530D01*
X6734900Y2758870D01*
G01X6716900Y2697000D02*
X6836900D01*
X6812900Y2713000D01*
G01X6716900D02*
Y2681000D01*
G01X6836900Y2601800D02*
X6832900Y2612470D01*
X6822900Y2620470D01*
X6810900Y2625800D01*
X6794900Y2629800D01*
X6776900Y2631130D01*
X6758900Y2629800D01*
X6742900Y2625800D01*
X6730900Y2620470D01*
X6720900Y2612470D01*
X6716900Y2601800D01*
X6720900Y2591130D01*
X6730900Y2583130D01*
X6742900Y2577800D01*
X6758900Y2573800D01*
X6776900Y2572470D01*
X6794900Y2573800D01*
X6810900Y2577800D01*
X6822900Y2583130D01*
X6832900Y2591130D01*
X6836900Y2601800D01*
G01X6826900Y1982870D02*
X6832900Y1990870D01*
X6836900Y2000200D01*
Y2010870D01*
X6830900Y2022870D01*
X6820900Y2032200D01*
X6808900Y2038870D01*
X6788900Y2044200D01*
X6770900Y2045530D01*
X6752900Y2042870D01*
X6740900Y2038870D01*
X6728900Y2030870D01*
X6720900Y2021530D01*
X6716900Y2012200D01*
Y2002870D01*
X6720900Y1993530D01*
X6726900Y1985530D01*
X6734900Y1978870D01*
G01X6716900Y1919670D02*
X6742900Y1917000D01*
X6764900Y1913000D01*
X6784900Y1907670D01*
X6806900Y1901000D01*
X6836900Y1890330D01*
Y1943670D01*
G01X6673830Y3378100D02*
Y3498100D01*
X6707170D01*
X6717830Y3492100D01*
X6724500Y3484100D01*
X6727170Y3468100D01*
X6724500Y3452100D01*
X6716500Y3442100D01*
X6707170Y3436100D01*
X6673830D01*
G01X6707170D02*
X6727170Y3378100D01*
G01X6773030Y3392100D02*
X6782370Y3382100D01*
X6793030Y3378100D01*
X6803700Y3382100D01*
X6813030Y3394100D01*
X6819700Y3412100D01*
X6822370Y3430100D01*
Y3452100D01*
X6819700Y3470100D01*
X6813030Y3486100D01*
X6805030Y3494100D01*
X6795700Y3498100D01*
X6785030Y3494100D01*
X6777030Y3486100D01*
X6771700Y3474100D01*
X6769030Y3458100D01*
X6771700Y3444100D01*
X6778370Y3430100D01*
X6786370Y3422100D01*
X6795700Y3420100D01*
X6806370Y3424100D01*
X6814370Y3434100D01*
X6822370Y3452100D01*
G01X7086170Y3621900D02*
Y3501900D01*
X7052830D01*
X7042170Y3507900D01*
X7035500Y3515900D01*
X7032830Y3531900D01*
X7035500Y3547900D01*
X7043500Y3557900D01*
X7052830Y3563900D01*
X7086170D01*
G01X7052830D02*
X7032830Y3621900D01*
G01X6964300D02*
Y3501900D01*
X6980300Y3525900D01*
G01Y3621900D02*
X6948300D01*
G01X6869100Y3501900D02*
X6879770Y3505900D01*
X6887770Y3515900D01*
X6893100Y3527900D01*
X6897100Y3543900D01*
X6898430Y3561900D01*
X6897100Y3579900D01*
X6893100Y3595900D01*
X6887770Y3607900D01*
X6879770Y3617900D01*
X6869100Y3621900D01*
X6858430Y3617900D01*
X6850430Y3607900D01*
X6845100Y3595900D01*
X6841100Y3579900D01*
X6839770Y3561900D01*
X6841100Y3543900D01*
X6845100Y3527900D01*
X6850430Y3515900D01*
X6858430Y3505900D01*
X6869100Y3501900D01*
G01X7586900Y2382870D02*
X7592900Y2390870D01*
X7596900Y2400200D01*
Y2410870D01*
X7590900Y2422870D01*
X7580900Y2432200D01*
X7568900Y2438870D01*
X7548900Y2444200D01*
X7530900Y2445530D01*
X7512900Y2442870D01*
X7500900Y2438870D01*
X7488900Y2430870D01*
X7480900Y2421530D01*
X7476900Y2412200D01*
Y2402870D01*
X7480900Y2393530D01*
X7486900Y2385530D01*
X7494900Y2378870D01*
G01X7476900Y2317000D02*
X7478900Y2307670D01*
X7484900Y2297000D01*
X7494900Y2290330D01*
X7508900Y2287670D01*
X7522900Y2290330D01*
X7534900Y2298330D01*
X7540900Y2310330D01*
Y2323670D01*
X7544900Y2331670D01*
X7554900Y2338330D01*
X7568900Y2341000D01*
X7582900Y2337000D01*
X7592900Y2327670D01*
X7596900Y2317000D01*
X7592900Y2306330D01*
X7582900Y2297000D01*
X7568900Y2293000D01*
X7554900Y2295670D01*
X7544900Y2302330D01*
X7540900Y2310330D01*
Y2323670D01*
X7534900Y2335670D01*
X7522900Y2343670D01*
X7508900Y2346330D01*
X7494900Y2343670D01*
X7484900Y2337000D01*
X7478900Y2326330D01*
X7476900Y2317000D01*
G01X7959600Y3162000D02*
Y3130000D01*
G01Y3146000D02*
X7839600D01*
G01Y3162000D02*
Y3130000D01*
G01X7949600Y3021470D02*
X7955600Y3029470D01*
X7959600Y3038800D01*
Y3049470D01*
X7953600Y3061470D01*
X7943600Y3070800D01*
X7931600Y3077470D01*
X7911600Y3082800D01*
X7893600Y3084130D01*
X7875600Y3081470D01*
X7863600Y3077470D01*
X7851600Y3069470D01*
X7843600Y3060130D01*
X7839600Y3050800D01*
Y3041470D01*
X7843600Y3032130D01*
X7849600Y3024130D01*
X7857600Y3017470D01*
G01X7839600Y2955600D02*
X7959600D01*
X7935600Y2971600D01*
G01X7839600D02*
Y2939600D01*
G01X8073830Y978100D02*
Y1098100D01*
X8107170D01*
X8117830Y1092100D01*
X8124500Y1084100D01*
X8127170Y1068100D01*
X8124500Y1052100D01*
X8116500Y1042100D01*
X8107170Y1036100D01*
X8073830D01*
G01X8107170D02*
X8127170Y978100D01*
G01X8195700D02*
Y1098100D01*
X8179700Y1074100D01*
G01Y978100D02*
X8211700D01*
G01X8261570Y996100D02*
X8269570Y986100D01*
X8278900Y980100D01*
X8290900Y978100D01*
X8302900Y982100D01*
X8312230Y990100D01*
X8318900Y1004100D01*
X8320230Y1020100D01*
X8317570Y1036100D01*
X8310900Y1046100D01*
X8301570Y1054100D01*
X8292230Y1056100D01*
X8282900Y1054100D01*
X8270900Y1046100D01*
X8274900Y1098100D01*
X8310900D01*
G01X8073670Y3856900D02*
Y3976900D01*
X8100330D01*
X8111000Y3970900D01*
X8119000Y3962900D01*
X8125670Y3950900D01*
X8131000Y3936900D01*
X8132330Y3916900D01*
X8131000Y3896900D01*
X8125670Y3882900D01*
X8119000Y3870900D01*
X8111000Y3862900D01*
X8100330Y3856900D01*
X8073670D01*
G01X8198200D02*
Y3976900D01*
X8182200Y3952900D01*
G01Y3856900D02*
X8214200D01*
G01X9409870Y1412300D02*
X9403200Y1424300D01*
X9395200Y1432300D01*
X9385870Y1436300D01*
X9375200Y1432300D01*
X9367200Y1424300D01*
X9359200Y1412300D01*
X9356530Y1396300D01*
Y1316300D01*
G01X9272000Y1436300D02*
Y1316300D01*
X9321330Y1402300D01*
X9254670D01*
G01X9613830Y978100D02*
Y1098100D01*
X9647170D01*
X9657830Y1092100D01*
X9664500Y1084100D01*
X9667170Y1068100D01*
X9664500Y1052100D01*
X9656500Y1042100D01*
X9647170Y1036100D01*
X9613830D01*
G01X9647170D02*
X9667170Y978100D01*
G01X9735700D02*
Y1098100D01*
X9719700Y1074100D01*
G01Y978100D02*
X9751700D01*
G01X9801570Y1002100D02*
X9809570Y988100D01*
X9820230Y980100D01*
X9832230Y978100D01*
X9842900Y980100D01*
X9853570Y990100D01*
X9860230Y1002100D01*
X9861570Y1014100D01*
X9858900Y1028100D01*
X9849570Y1038100D01*
X9840230Y1042100D01*
X9828230D01*
G01X9840230D02*
X9848230Y1048100D01*
X9854900Y1058100D01*
X9857570Y1070100D01*
X9854900Y1082100D01*
X9848230Y1092100D01*
X9836230Y1098100D01*
X9824230Y1096100D01*
X9812230Y1088100D01*
G01X10089870Y1412300D02*
X10083200Y1424300D01*
X10075200Y1432300D01*
X10065870Y1436300D01*
X10055200Y1432300D01*
X10047200Y1424300D01*
X10039200Y1412300D01*
X10036530Y1396300D01*
Y1316300D01*
G01X9997330Y1412300D02*
X9989330Y1426300D01*
X9978670Y1434300D01*
X9966670Y1436300D01*
X9956000Y1434300D01*
X9945330Y1424300D01*
X9938670Y1412300D01*
X9937330Y1400300D01*
X9940000Y1386300D01*
X9949330Y1376300D01*
X9958670Y1372300D01*
X9970670D01*
G01X9958670D02*
X9950670Y1366300D01*
X9944000Y1356300D01*
X9941330Y1344300D01*
X9944000Y1332300D01*
X9950670Y1322300D01*
X9962670Y1316300D01*
X9974670Y1318300D01*
X9986670Y1326300D01*
G01X9613830Y3398100D02*
Y3518100D01*
X9647170D01*
X9657830Y3512100D01*
X9664500Y3504100D01*
X9667170Y3488100D01*
X9664500Y3472100D01*
X9656500Y3462100D01*
X9647170Y3456100D01*
X9613830D01*
G01X9647170D02*
X9667170Y3398100D01*
G01X9735700D02*
Y3518100D01*
X9719700Y3494100D01*
G01Y3398100D02*
X9751700D01*
G01X9805570Y3498100D02*
X9813570Y3510100D01*
X9822900Y3516100D01*
X9833570Y3518100D01*
X9846900Y3514100D01*
X9856230Y3504100D01*
X9858900Y3492100D01*
X9857570Y3480100D01*
X9852230Y3470100D01*
X9825570Y3450100D01*
X9813570Y3436100D01*
X9805570Y3416100D01*
X9802900Y3398100D01*
X9858900D01*
G01X9593830Y3938100D02*
Y4058100D01*
X9627170D01*
X9637830Y4052100D01*
X9644500Y4044100D01*
X9647170Y4028100D01*
X9644500Y4012100D01*
X9636500Y4002100D01*
X9627170Y3996100D01*
X9593830D01*
G01X9627170D02*
X9647170Y3938100D01*
G01X9715700D02*
Y4058100D01*
X9699700Y4034100D01*
G01Y3938100D02*
X9731700D01*
G01X9810900D02*
Y4058100D01*
X9794900Y4034100D01*
G01Y3938100D02*
X9826900D01*
G54D13*
X825500Y2222500D03*
D03*
X860000Y2980000D03*
D03*
Y3700000D03*
D03*
X3180000Y1040000D03*
D03*
X3340000Y3780000D03*
D03*
X4180000D03*
D03*
X5040000D03*
D03*
X6420000Y1920000D03*
D03*
Y2700000D03*
D03*
X7180000Y2320000D03*
D03*
X8100000Y3560000D03*
D03*
G54D23*
G01X1238200Y2222500D02*
G02I-285700J0D01*
G01X1272700Y2980000D02*
G02I-285700J0D01*
G01Y3700000D02*
G02I-285700J0D01*
G01X1754500Y880000D02*
X1691000D01*
G01X2389500Y753000D02*
X1754500D01*
G01D02*
Y880000D01*
G01D02*
Y1007000D01*
G01D02*
X2389500D01*
G01X1750500Y1753000D02*
Y1880000D01*
G01X2385500Y1753000D02*
X1750500D01*
G01Y1360000D02*
X1687000D01*
G01X1750500Y1233000D02*
Y1360000D01*
G01D02*
Y1487000D01*
G01D02*
X2385500D01*
G01Y1233000D02*
X1750500D01*
G01Y1880000D02*
X1687000D01*
G01X1750500D02*
Y2007000D01*
G01D02*
X2385500D01*
G01X1778000Y2286000D02*
X1714500D01*
G01X1778000Y2159000D02*
Y2286000D01*
G01D02*
Y2413000D01*
G01D02*
X2413000D01*
G01Y2159000D02*
X1778000D01*
G01X2603500Y2984500D02*
X1460500D01*
G01D02*
Y3492500D01*
G01X1734500Y3700000D02*
X1671000D01*
G01X2369500Y3573000D02*
X1734500D01*
G01D02*
Y3700000D01*
G01D02*
Y3827000D01*
G01D02*
X2369500D01*
G01X1460500Y3492500D02*
X2603500D01*
G01X2389500Y880000D02*
X2453000D01*
G01X2389500Y1007000D02*
Y880000D01*
G01D02*
Y753000D01*
G01X2385500Y1880000D02*
Y1753000D01*
G01Y1360000D02*
X2449000D01*
G01X2385500Y1487000D02*
Y1360000D01*
G01D02*
Y1233000D01*
G01Y1880000D02*
X2449000D01*
G01X2385500Y2007000D02*
Y1880000D01*
G01X2413000Y2286000D02*
X2476500D01*
G01X2413000Y2413000D02*
Y2286000D01*
G01D02*
Y2159000D01*
G01X2603500Y3492500D02*
Y2984500D01*
G01X2369500Y3700000D02*
X2433000D01*
G01X2369500Y3827000D02*
Y3700000D01*
G01D02*
Y3573000D01*
G01X3592700Y1040000D02*
G02I-285700J0D01*
G01X3625700Y3653000D02*
G02I-285700J0D01*
G01X4465700D02*
G02I-285700J0D01*
G01X4572000Y1270000D02*
X4508500D01*
G01X4572000Y1143000D02*
Y1270000D01*
G01D02*
Y1397000D01*
G01D02*
X5207000D01*
G01Y1143000D02*
X4572000D01*
G01Y1651000D02*
X4508500D01*
G01X4572000Y1524000D02*
Y1651000D01*
G01D02*
Y1778000D01*
G01D02*
X5207000D01*
G01Y1524000D02*
X4572000D01*
G01Y2413000D02*
X4508500D01*
G01X4572000Y2286000D02*
Y2413000D01*
G01D02*
Y2540000D01*
G01D02*
X5207000D01*
G01Y2286000D02*
X4572000D01*
G01Y2032000D02*
X4508500D01*
G01X4572000Y1905000D02*
Y2032000D01*
G01D02*
Y2159000D01*
G01D02*
X5207000D01*
G01Y1905000D02*
X4572000D01*
G01X5325700Y3653000D02*
G02I-285700J0D01*
G01X5651500Y1257300D02*
Y2552700D01*
G01X5905500Y1257300D02*
X5651500D01*
G01X5207000Y1270000D02*
X5270500D01*
G01X5207000Y1397000D02*
Y1270000D01*
G01D02*
Y1143000D01*
G01Y1651000D02*
X5270500D01*
G01X5207000Y1778000D02*
Y1651000D01*
G01D02*
Y1524000D01*
G01X5651500Y2552700D02*
X5905500D01*
G01X5207000Y2413000D02*
X5270500D01*
G01X5207000Y2540000D02*
Y2413000D01*
G01D02*
Y2286000D01*
G01Y2032000D02*
X5270500D01*
G01X5207000Y2159000D02*
Y2032000D01*
G01D02*
Y1905000D01*
G01X7370500Y626000D02*
X6227500D01*
G01D02*
Y1134000D01*
G01X5905500Y1397000D02*
Y1257300D01*
G01Y1651000D02*
Y1397000D01*
G01Y1905000D02*
Y1651000D01*
G01X6705700Y1793000D02*
G02I-285700J0D01*
G01X6227500Y1134000D02*
X7370500D01*
G01X5905500Y2159000D02*
Y1905000D01*
G01Y2413000D02*
Y2159000D01*
G01Y2552700D02*
Y2413000D01*
G01X6705700Y2573000D02*
G02I-285700J0D01*
G01X7465700Y2193000D02*
G02I-285700J0D01*
G01X6570500Y3240000D02*
X6507000D01*
G01X6570500Y3113000D02*
Y3240000D01*
G01D02*
Y3367000D01*
G01D02*
X7205500D01*
G01Y3113000D02*
X6570500D01*
G01X7189500Y3760000D02*
X7253000D01*
G01X6554500D02*
X6491000D01*
G01X7189500Y3887000D02*
Y3760000D01*
G01D02*
Y3633000D01*
G01D02*
X6554500D01*
G01D02*
Y3760000D01*
G01D02*
Y3887000D01*
G01D02*
X7189500D01*
G01X7970500Y840000D02*
X7907000D01*
G01X7370500Y1134000D02*
Y626000D01*
G01X7205500Y3240000D02*
X7269000D01*
G01X7205500Y3367000D02*
Y3240000D01*
G01D02*
Y3113000D01*
G01X7941300Y3560000D02*
G02X8258700Y3877500I317400J100D01*
G02Y3242500I0J-317500D01*
G02X7941300Y3560000I0J317400D01*
G01X8605500Y840000D02*
X8669000D01*
G01X7970500Y713000D02*
Y840000D01*
G01D02*
Y967000D01*
G01D02*
X8605500D01*
G01D02*
Y840000D01*
G01D02*
Y713000D01*
G01D02*
X7970500D01*
G01X9510500Y840000D02*
X9447000D01*
G01X9193000Y1460300D02*
Y2755700D01*
G01X9447000Y1460300D02*
X9193000D01*
G01X9447000Y1600000D02*
Y1460300D01*
G01Y1854000D02*
Y1600000D01*
G01Y2108000D02*
Y1854000D01*
G01Y2362000D02*
Y2108000D01*
G01Y2616000D02*
Y2362000D01*
G01Y2755700D02*
Y2616000D01*
G01X9193000Y2755700D02*
X9447000D01*
G01X9510500Y3260000D02*
X9447000D01*
G01X9490500Y3800000D02*
X9427000D01*
G01X10145500Y840000D02*
X10209000D01*
G01X9510500Y713000D02*
Y840000D01*
G01D02*
Y967000D01*
G01D02*
X10145500D01*
G01D02*
Y840000D01*
G01D02*
Y713000D01*
G01D02*
X9510500D01*
G01X9873000Y1460300D02*
Y2755700D01*
G01X10127000Y1460300D02*
X9873000D01*
G01X10127000Y1600000D02*
Y1460300D01*
G01Y1854000D02*
Y1600000D01*
G01Y2108000D02*
Y1854000D01*
G01Y2362000D02*
Y2108000D01*
G01Y2616000D02*
Y2362000D01*
G01Y2755700D02*
Y2616000D01*
G01X9873000Y2755700D02*
X10127000D01*
G01X10145500Y3260000D02*
X10209000D01*
G01X9510500Y3133000D02*
Y3260000D01*
G01D02*
Y3387000D01*
G01D02*
X10145500D01*
G01D02*
Y3260000D01*
G01D02*
Y3133000D01*
G01D02*
X9510500D01*
G01X10125500Y3800000D02*
X10189000D01*
G01X9490500Y3673000D02*
Y3800000D01*
G01D02*
Y3927000D01*
G01D02*
X10125500D01*
G01D02*
Y3800000D01*
G01D02*
Y3673000D01*
G01D02*
X9490500D01*
G54D14*
X1079500Y2222500D03*
D03*
X1114000Y2980000D03*
D03*
Y3700000D03*
D03*
X1564000Y880000D03*
D03*
X1560000Y1880000D03*
D03*
Y1360000D03*
D03*
X1587500Y2286000D03*
D03*
X1651000Y3238500D03*
D03*
X1544000Y3700000D03*
D03*
X2580000Y880000D03*
D03*
X2576000Y1880000D03*
D03*
Y1360000D03*
D03*
X2603500Y2286000D03*
D03*
X2413000Y3238500D03*
D03*
X2560000Y3700000D03*
D03*
X3434000Y1040000D03*
D03*
X3340000Y3526000D03*
D03*
X4180000D03*
D03*
X4381500Y1270000D03*
D03*
Y1651000D03*
D03*
Y2413000D03*
D03*
Y2032000D03*
D03*
X5397500Y1270000D03*
D03*
Y1651000D03*
D03*
Y2413000D03*
D03*
Y2032000D03*
D03*
X5040000Y3526000D03*
D03*
X6418000Y880000D03*
D03*
X6420000Y1666000D03*
D03*
Y2446000D03*
D03*
X6380000Y3240000D03*
D03*
X6364000Y3760000D03*
D03*
X7180000Y880000D03*
D03*
Y2066000D03*
D03*
X7780000Y840000D03*
D03*
X7396000Y3240000D03*
D03*
X7380000Y3760000D03*
D03*
X8417500Y3560000D03*
D03*
X9320000Y840000D03*
D03*
X8796000D03*
D03*
X9320000Y3260000D03*
D03*
X9300000Y3800000D03*
D03*
X10336000Y840000D03*
D03*
Y3260000D03*
D03*
X10316000Y3800000D03*
D03*
G54D24*
G01X1560000Y1360000D02*
X1278000Y1078000D01*
G01D02*
X1132000D01*
G01X1564000Y880000D02*
X1763500Y1079500D01*
X2387600D01*
X2413000Y1104900D01*
Y2336800D01*
X2489200Y2413000D01*
X2667000D01*
X2796500Y2283500D01*
X3111500D01*
G01X1132000Y1143000D02*
X1270000D01*
X1455840Y1328840D01*
Y1775840D01*
X1560000Y1880000D01*
G01X1587500Y2286000D02*
X1333500Y2032000D01*
Y1298090D01*
X1243410Y1208000D01*
X1132000D01*
G01X1560000Y1276140D02*
Y1360000D01*
G01D02*
Y1443860D01*
G01Y1360000D02*
X1643860D01*
G01X3302000Y2984500D02*
X3175000Y3111500D01*
X1778000D01*
X1651000Y3238500D01*
G01X2603500Y2286000D02*
X2413000Y2095500D01*
Y1206500D01*
X2580000Y1039500D01*
Y880000D01*
G01X3656300Y2603500D02*
Y2547600D01*
X3585200Y2476500D01*
X3458980D01*
X3360400Y2575080D01*
Y2578620D01*
X3330420Y2608600D01*
X2438400D01*
X2413000Y2634000D01*
Y3238500D01*
G01X2603500Y2286000D02*
X2766100Y2123400D01*
X3111500D01*
G01X2741900Y2043400D02*
X2706850Y2008350D01*
X2704350D01*
X2576000Y1880000D01*
G01X2560000Y3700000D02*
X2670000Y3810000D01*
X3056000D01*
X3340000Y3526000D01*
G01X2813000Y2203500D02*
Y1065400D01*
X2838400Y1040000D01*
X3180000D01*
G01X3111500Y2043400D02*
X2741900D01*
G01X3111500Y2203500D02*
X2813000D01*
G01X3044200Y2672800D02*
X3186900D01*
G01X3302000Y2984500D02*
X3492500D01*
G01X3340000Y3526000D02*
X3416300Y3449700D01*
Y2748300D01*
G01X7880000Y2460000D02*
X7636510D01*
X7239010Y2857500D01*
X4102960D01*
X3961100Y2715640D01*
Y2603500D01*
G01X3656300D02*
Y2748300D01*
G01X4381500Y2413000D02*
X4290040D01*
X4240540Y2363500D01*
X3961100D01*
G01Y2283500D02*
X4130000D01*
X4381500Y2032000D01*
G01X3961100Y2203500D02*
X4062690D01*
X4381500Y1884690D01*
Y1651000D01*
G01Y1270000D02*
X4254500Y1397000D01*
Y1913850D01*
X4044950Y2123400D01*
X3961100D01*
G01X3937000Y2794000D02*
X4000500Y2730500D01*
X4191000D01*
G01X3937000Y2794000D02*
X3891300Y2748300D01*
X3816300D01*
G01X3576300D02*
Y2837200D01*
G01D02*
Y2922300D01*
X4180000Y3526000D01*
G01X3576300Y2837200D02*
X3492500Y2921000D01*
Y2984500D01*
G01X5040000Y3526000D02*
X4319700D01*
X4284160Y3490460D01*
Y3482850D01*
X4223150Y3421840D01*
X4215540D01*
X3656300Y2862600D01*
Y2748300D01*
G01X7880000Y2380000D02*
X7644660D01*
X7230660Y2794000D01*
X6512000D01*
X6501840Y2804160D01*
X6338160D01*
X6328000Y2794000D01*
X4254500D01*
X4191000Y2730500D01*
G01X5397500Y1270000D02*
X5524500Y1397000D01*
X5778500D01*
G01X5397500Y1651000D02*
X5778500D01*
G01X5397500Y2413000D02*
X5651500Y2159000D01*
X5778500D01*
G01X5397500Y2032000D02*
X5524500Y1905000D01*
X5778500D01*
G01X6420000Y1666000D02*
Y967120D01*
X6418000Y965120D01*
Y880000D01*
G01X7810500Y1841500D02*
X6595500D01*
X6420000Y1666000D01*
G01X5778500Y2159000D02*
X6133000D01*
X6420000Y2446000D01*
G01X7180000Y2066000D02*
Y880000D01*
G01Y2066000D02*
X7332000D01*
X7697080Y1700920D01*
X8084820D01*
X8104800Y1720900D01*
Y1835200D01*
G01X7780000Y840000D02*
X8584800Y1644800D01*
Y1835200D01*
G01X8024800D02*
X7943800D01*
X7937500Y1841500D01*
X7810500D01*
G01X7812700Y2609300D02*
X7955400D01*
G01X8572500Y2476500D02*
X8445500D01*
X8382000Y2540000D01*
X7880000D01*
G01D02*
Y2756000D01*
X7396000Y3240000D01*
G01X7380000Y3760000D02*
X7900000D01*
X8100000Y3560000D01*
G01X8572500Y2476500D02*
Y2347500D01*
X9320000Y1600000D01*
G01X8729600Y2460000D02*
X8864600D01*
X8890000Y2485400D01*
Y2857500D01*
X8417500Y3330000D01*
Y3560000D01*
G01X9320000Y1854000D02*
X9525000Y1649000D01*
Y1045000D01*
X9320000Y840000D01*
G01Y1600000D02*
X8796000Y1076000D01*
Y840000D01*
G01X9320000Y1854000D02*
X9142900D01*
X9017000Y1979900D01*
X8729600D01*
G01X10000000Y1600000D02*
X9320000D01*
G01Y2108000D02*
X9525000Y2313000D01*
Y2921000D01*
X9320000Y3126000D01*
Y3260000D01*
G01Y2108000D02*
X9065100D01*
X9017000Y2059900D01*
X8729600D01*
G01X9320000Y2362000D02*
X9436860Y2478860D01*
Y2664410D01*
X9144000Y2957270D01*
Y3429000D01*
X9300000Y3585000D01*
Y3800000D01*
G01X9320000Y2362000D02*
X9215840D01*
X8993840Y2140000D01*
X8729600D01*
G01X10336000Y840000D02*
Y1729000D01*
X10211000Y1854000D01*
X10000000D01*
G01X10336000Y3260000D02*
X10181500D01*
X9715500Y2794000D01*
Y2222500D01*
X9830000Y2108000D01*
X10000000D01*
G01X10316000Y3800000D02*
X10477500Y3638500D01*
Y3048000D01*
X10223500Y2794000D01*
X9850850D01*
X9804400Y2747550D01*
Y2400100D01*
X9842500Y2362000D01*
X10000000D01*
G54D15*
X3256300Y1898700D03*
X3336300Y2748300D03*
X3256300D03*
X3416300Y1898700D03*
X3496300D03*
X3576300D03*
X3656300D03*
X3736300D03*
X3816300D03*
Y2748300D03*
X3736300D03*
X3656300D03*
X3576300D03*
X3496300D03*
X8024800Y1835200D03*
X8184800D03*
X8264800D03*
X8344800D03*
X8424800D03*
X8504800D03*
X8584800D03*
Y2684800D03*
X8504800D03*
X8424800D03*
X8344800D03*
X8264800D03*
X8104800D03*
X8024800D03*
G54D25*
G01X1079500Y2138640D02*
Y2222500D01*
G01D02*
Y2306360D01*
G01X995640Y2222500D02*
X1079500D01*
G01D02*
X1163360D01*
G01X1079500Y2138640D02*
Y2222500D01*
G01D02*
Y2306360D01*
G01X995640Y2222500D02*
X1079500D01*
G01D02*
X1163360D01*
G01X1114000Y2896140D02*
Y2980000D01*
G01D02*
Y3063860D01*
G01X1030140Y2980000D02*
X1114000D01*
G01D02*
X1197860D01*
G01X1114000Y2896140D02*
Y2980000D01*
G01X1030140D02*
X1114000D01*
G01D02*
X1197860D01*
G01X1114000Y3616140D02*
Y3700000D01*
G01D02*
Y3783860D01*
G01X1030140Y3700000D02*
X1114000D01*
G01D02*
Y3783860D01*
G01X1030140Y3700000D02*
X1114000D01*
G01D02*
X1197860D01*
G01X3350140Y1040000D02*
X3434000D01*
G01X3350140D02*
X3434000D01*
G01X3340000Y3696140D02*
Y3780000D01*
G01D02*
Y3863860D01*
G01Y3696140D02*
Y3780000D01*
G01D02*
Y3863860D01*
G01X3256140Y3780000D02*
X3340000D01*
G01X3434000Y956140D02*
Y1040000D01*
G01D02*
Y1123860D01*
G01Y1040000D02*
X3517860D01*
G01X3434000Y956140D02*
Y1040000D01*
G01D02*
X3517860D01*
G01X4096140Y3780000D02*
X4180000D01*
G01Y3696140D02*
Y3780000D01*
G01D02*
Y3863860D01*
G01Y3780000D02*
X4263860D01*
G01X4180000Y3696140D02*
Y3780000D01*
G01D02*
Y3863860D01*
G01X5681940Y2413000D02*
X5778500D01*
G01X5681940D02*
X5778500D01*
G01X5040000Y3696140D02*
Y3780000D01*
G01D02*
Y3863860D01*
G01X4956140Y3780000D02*
X5040000D01*
G01D02*
X5123860D01*
G01X5040000Y3696140D02*
Y3780000D01*
G01D02*
Y3863860D01*
G01Y3780000D02*
X5123860D01*
G01X6420000Y1836140D02*
Y1920000D01*
G01Y1836140D02*
Y1920000D01*
G01Y2616140D02*
Y2700000D01*
G01X5778500Y2316440D02*
Y2413000D01*
G01D02*
X5875060D01*
G01X6420000Y1920000D02*
Y2003860D01*
G01X6336140Y1920000D02*
X6420000D01*
G01D02*
X6503860D01*
G01X6420000Y2616140D02*
Y2700000D01*
G01X5778500Y2316440D02*
Y2413000D01*
G01D02*
Y2509560D01*
G01Y2413000D02*
X5875060D01*
G01X6420000Y1920000D02*
Y2003860D01*
G01X6336140Y1920000D02*
X6420000D01*
G01D02*
X6503860D01*
G01X6420000Y2700000D02*
Y2783860D01*
G01Y2700000D02*
X6503860D01*
G01X6336140D02*
X6420000D01*
G01X7180000Y2236140D02*
Y2320000D01*
G01D02*
Y2403860D01*
G01X7096140Y2320000D02*
X7180000D01*
G01D02*
X7263860D01*
G01X7180000Y2236140D02*
Y2320000D01*
G01D02*
Y2403860D01*
G01Y2320000D02*
X7263860D01*
G01X9320000Y2519440D02*
Y2616000D01*
G01D02*
Y2712560D01*
G01X9223440Y2616000D02*
X9320000D01*
G01Y2519440D02*
Y2616000D01*
G01X9223440D02*
X9320000D01*
G01X10000000Y2519440D02*
Y2616000D01*
G01D02*
Y2712560D01*
G01Y2616000D02*
X10096560D01*
G01X10000000Y2519440D02*
Y2616000D01*
G01D02*
Y2712560D01*
G01X9903440Y2616000D02*
X10000000D01*
G01D02*
X10096560D01*
G54D16*
X3336300Y1898700D03*
X3416300Y2748300D03*
X8104800Y1835200D03*
X8184800Y2684800D03*
G54D26*
G01X1132000Y1273000D02*
X1014190D01*
X952500Y1334690D01*
Y2095500D01*
G01X3111500Y2363500D02*
X2907000D01*
X2730500Y2540000D01*
X1143000D01*
X825500Y2222500D01*
G01X860000Y2980000D02*
X741470Y2861470D01*
Y2306530D01*
X825500Y2222500D01*
G01X1079500D02*
X1014820Y2287180D01*
G01D02*
Y2880820D01*
G01X952500Y2095500D02*
X1079500Y2222500D01*
G01X860000Y3700000D02*
Y2980000D01*
G01X1114000Y3700000D02*
Y2980000D01*
G01X1014820Y2880820D02*
X1114000Y2980000D01*
G01X860000Y3700000D02*
Y3791460D01*
X954740Y3886200D01*
X1357800D01*
X1544000Y3700000D01*
G01X1114000D02*
X1223500D01*
G01D02*
X1460500Y3937000D01*
X3048000D01*
X3205000Y3780000D01*
G01X2576000Y1360000D02*
X2884000D01*
X2984500Y1460500D01*
G01D02*
X3093260D01*
X3429000Y1796240D01*
Y2286000D01*
G01X3434000Y1187600D02*
X3120060Y1501540D01*
Y1850060D01*
X3175000Y1905000D01*
G01X3294500Y1646770D02*
X3256300Y1684970D01*
G01X3618100Y1646770D02*
X3294500D01*
G01X3256300Y1684970D02*
Y1898700D01*
G01X3111500Y2443500D02*
Y2363500D01*
G01D02*
X3183750D01*
G01X3736300Y2748300D02*
Y2504700D01*
X3675100Y2443500D01*
X3111500D01*
G01X3183750Y2363500D02*
X3478500D01*
X3576300Y2265700D01*
Y1898700D01*
G01X3429000Y2286000D02*
X3261250D01*
X3183750Y2363500D01*
G01X3256300Y1898700D02*
Y2159000D01*
G01D02*
Y2538100D01*
G01D02*
X3427100D01*
X3492500Y2603500D01*
G01X3181300Y1898700D02*
X3256300D01*
G01X3336300Y2748300D02*
Y2618100D01*
G01D02*
X3256300Y2538100D01*
G01X3340000Y3780000D02*
X4180000D01*
G01X3340000D02*
X3467100D01*
G01X3205000D02*
X3340000D01*
G01X3434000Y1040000D02*
Y1187600D01*
G01X3656300Y1898700D02*
Y1684970D01*
G01D02*
X3618100Y1646770D01*
G01X3467100Y3780000D02*
X3619500Y3627600D01*
Y2730500D01*
X3492500Y2603500D01*
G01D02*
X3496300Y2607300D01*
G01X3656300Y1898700D02*
Y2013000D01*
G01X3496300Y2607300D02*
Y2748300D01*
G01X3656300Y2013000D02*
X3686700Y2043400D01*
G01D02*
X3961100D01*
G01X6380000Y3240000D02*
X4118800D01*
X3736300Y2857500D01*
Y2748300D01*
G01X4180000Y3780000D02*
X5040000D01*
G01D02*
X5778500Y3041500D01*
G01X6420000Y1920000D02*
X6286500Y2053500D01*
G01X5778500Y2413000D02*
X6065500Y2700000D01*
G01X6286500Y2566500D02*
X6420000Y2700000D01*
G01X5778500Y3041500D02*
Y2413000D01*
G01X6286500Y2053500D02*
Y2566500D01*
G01X6380000Y3240000D02*
X6286500Y3333500D01*
Y3682500D01*
X6364000Y3760000D01*
G01X7683500Y2032000D02*
Y2286000D01*
X6729500Y3240000D01*
X6380000D01*
G01X6065500Y2700000D02*
X6420000D01*
G01D02*
X6668500D01*
G01X7595000Y1905000D02*
X7180000Y2320000D01*
G01X7048500D02*
X7180000D01*
G01X6668500Y2700000D02*
X7048500Y2320000D01*
G01X8729600Y2220000D02*
X8573500D01*
X8413400Y2059900D01*
X7880000D01*
G01X7683500Y2032000D02*
X7744140D01*
X7772040Y2059900D01*
X7880000D01*
G01Y1979900D02*
X7813950D01*
X7739050Y1905000D01*
G01D02*
X7595000D01*
G01X8456900Y1979900D02*
X7880000D01*
G01X8572500Y2095500D02*
X8445500Y2222500D01*
Y2286000D01*
G01X8572500Y2095500D02*
X8456900Y1979900D01*
G01X8729600Y2380000D02*
X8539500D01*
G01X8729600D02*
X9084000D01*
G01X8539500D02*
X8445500Y2286000D01*
G01X9320000Y2616000D02*
X10000000D01*
G01X9084000Y2380000D02*
X9320000Y2616000D01*
G54D17*
X2984500Y1460500D03*
D03*
X3429000Y2286000D03*
D03*
X3256300Y2538100D03*
D03*
Y2159000D03*
D03*
X2741900Y2043400D03*
D03*
X2813000Y2203500D03*
D03*
X3302000Y2984500D03*
D03*
X3656300Y2603500D03*
D03*
X3492500D03*
D03*
X3937000Y2794000D03*
D03*
X4191000Y2730500D03*
D03*
X3492500Y2984500D03*
D03*
X7810500Y1841500D03*
D03*
X7683500Y2032000D03*
D03*
X8445500Y2286000D03*
D03*
X8572500Y2095500D03*
D03*
Y2476500D03*
D03*
G54D18*
X3111500Y2603500D03*
X3961100Y2283500D03*
X7880000Y2540000D03*
X8729600Y2220000D03*
G54D19*
X3111500Y2523500D03*
Y2443500D03*
Y2363500D03*
Y2283500D03*
Y2203500D03*
Y2123400D03*
Y2043400D03*
X3961100D03*
Y2123400D03*
Y2203500D03*
Y2363500D03*
Y2443500D03*
Y2523500D03*
Y2603500D03*
X7880000Y2460000D03*
Y2380000D03*
Y2300000D03*
Y2220000D03*
Y2140000D03*
Y2059900D03*
Y1979900D03*
X8729600D03*
Y2059900D03*
Y2140000D03*
Y2300000D03*
Y2380000D03*
Y2460000D03*
Y2540000D03*
M02*
