G04 ================== begin FILE IDENTIFICATION RECORD ==================*
G04 Layout Name:  C:/Users/user/Desktop/work/avrusb/allegro/AVRUSB500.brd*
G04 Film Name:    metalT*
G04 File Format:  Gerber RS274X*
G04 File Origin:  Cadence Allegro 16.6-S034*
G04 Origin Date:  Fri Jul 19 14:11:37 2019*
G04 *
G04 Layer:  PIN/PASTEMASK_TOP*
G04 Layer:  PACKAGE GEOMETRY/PASTEMASK_TOP*
G04 *
G04 Offset:    (0.0000 0.0000)*
G04 Mirror:    No*
G04 Mode:      Positive*
G04 Rotation:  0*
G04 FullContactRelief:  No*
G04 UndefLineWidth:     0.0000*
G04 ================== end FILE IDENTIFICATION RECORD ====================*
%FSLAX55Y55*MOMM*%
%IR0*IPPOS*OFA0.00000B0.00000*MIA0B0*SFA1.00000B1.00000*%
%ADD11R,1.7201X.4*%
%ADD12O,.4569X1.778*%
%ADD15O,1.778X.4569*%
%ADD13R,.4569X1.778*%
%ADD14R,1.778X.4569*%
%ADD10R,1.7201X1.1001*%
%LPD*%
G75*
G54D10*
X1132000Y913000D03*
Y1373000D03*
G54D11*
Y1013000D03*
Y1078000D03*
Y1273000D03*
Y1208000D03*
Y1143000D03*
G54D12*
X3256300Y1898700D03*
X3336300Y2748300D03*
X3256300D03*
X3416300Y1898700D03*
X3496300D03*
X3576300D03*
X3656300D03*
X3736300D03*
X3816300D03*
Y2748300D03*
X3736300D03*
X3656300D03*
X3576300D03*
X3496300D03*
X8024800Y1835200D03*
X8184800D03*
X8264800D03*
X8344800D03*
X8424800D03*
X8504800D03*
X8584800D03*
Y2684800D03*
X8504800D03*
X8424800D03*
X8344800D03*
X8264800D03*
X8104800D03*
X8024800D03*
G54D13*
X3336300Y1898700D03*
X3416300Y2748300D03*
X8104800Y1835200D03*
X8184800Y2684800D03*
G54D14*
X3111500Y2603500D03*
X3961100Y2283500D03*
X7880000Y2540000D03*
X8729600Y2220000D03*
G54D15*
X3111500Y2523500D03*
Y2443500D03*
Y2363500D03*
Y2283500D03*
Y2203500D03*
Y2123400D03*
Y2043400D03*
X3961100D03*
Y2123400D03*
Y2203500D03*
Y2363500D03*
Y2443500D03*
Y2523500D03*
Y2603500D03*
X7880000Y2460000D03*
Y2380000D03*
Y2300000D03*
Y2220000D03*
Y2140000D03*
Y2059900D03*
Y1979900D03*
X8729600D03*
Y2059900D03*
Y2140000D03*
Y2300000D03*
Y2380000D03*
Y2460000D03*
Y2540000D03*
M02*
