G04 ================== begin FILE IDENTIFICATION RECORD ==================*
G04 Layout Name:  C:/Users/user/Desktop/work/avrusb/allegro/AVRUSB500.brd*
G04 Film Name:    SilkT*
G04 File Format:  Gerber RS274X*
G04 File Origin:  Cadence Allegro 16.6-S034*
G04 Origin Date:  Fri Jul 19 14:13:12 2019*
G04 *
G04 Layer:  REF DES/SILKSCREEN_TOP*
G04 Layer:  PACKAGE GEOMETRY/SILKSCREEN_TOP*
G04 Layer:  BOARD GEOMETRY/SILKSCREEN_TOP*
G04 *
G04 Offset:    (0.0000 0.0000)*
G04 Mirror:    No*
G04 Mode:      Positive*
G04 Rotation:  0*
G04 FullContactRelief:  No*
G04 UndefLineWidth:     0.2000*
G04 ================== end FILE IDENTIFICATION RECORD ====================*
%FSLAX55Y55*MOMM*%
%IR0*IPPOS*OFA0.00000B0.00000*MIA0B0*SFA1.00000B1.00000*%
%ADD10C,.2*%
%ADD11C,.203*%
%ADD12C,.254*%
G75*
%LPD*%
G75*
G36*
G01X1312000Y1773000D02*
X592000D01*
Y503000D01*
X1312000D01*
Y1773000D01*
G37*
G54D10*
G01X762630Y2629400D02*
X754630Y2635400D01*
X745300Y2639400D01*
X734630D01*
X722630Y2633400D01*
X713300Y2623400D01*
X706630Y2611400D01*
X701300Y2591400D01*
X699970Y2573400D01*
X702630Y2555400D01*
X706630Y2543400D01*
X714630Y2531400D01*
X723970Y2523400D01*
X733300Y2519400D01*
X742630D01*
X751970Y2523400D01*
X759970Y2529400D01*
X766630Y2537400D01*
G01X805830Y2533400D02*
X815170Y2523400D01*
X825830Y2519400D01*
X836500Y2523400D01*
X845830Y2535400D01*
X852500Y2553400D01*
X855170Y2571400D01*
Y2593400D01*
X852500Y2611400D01*
X845830Y2627400D01*
X837830Y2635400D01*
X828500Y2639400D01*
X817830Y2635400D01*
X809830Y2627400D01*
X804500Y2615400D01*
X801830Y2599400D01*
X804500Y2585400D01*
X811170Y2571400D01*
X819170Y2563400D01*
X828500Y2561400D01*
X839170Y2565400D01*
X847170Y2575400D01*
X855170Y2593400D01*
G01X797130Y3386900D02*
X789130Y3392900D01*
X779800Y3396900D01*
X769130D01*
X757130Y3390900D01*
X747800Y3380900D01*
X741130Y3368900D01*
X735800Y3348900D01*
X734470Y3330900D01*
X737130Y3312900D01*
X741130Y3300900D01*
X749130Y3288900D01*
X758470Y3280900D01*
X767800Y3276900D01*
X777130D01*
X786470Y3280900D01*
X794470Y3286900D01*
X801130Y3294900D01*
G01X833670D02*
X841670Y3284900D01*
X851000Y3278900D01*
X863000Y3276900D01*
X875000Y3280900D01*
X884330Y3288900D01*
X891000Y3302900D01*
X892330Y3318900D01*
X889670Y3334900D01*
X883000Y3344900D01*
X873670Y3352900D01*
X864330Y3354900D01*
X855000Y3352900D01*
X843000Y3344900D01*
X847000Y3396900D01*
X883000D01*
G01X797130Y4106900D02*
X789130Y4112900D01*
X779800Y4116900D01*
X769130D01*
X757130Y4110900D01*
X747800Y4100900D01*
X741130Y4088900D01*
X735800Y4068900D01*
X734470Y4050900D01*
X737130Y4032900D01*
X741130Y4020900D01*
X749130Y4008900D01*
X758470Y4000900D01*
X767800Y3996900D01*
X777130D01*
X786470Y4000900D01*
X794470Y4006900D01*
X801130Y4014900D01*
G01X837670Y4046900D02*
X847000Y4060900D01*
X855000Y4068900D01*
X865670Y4072900D01*
X875000Y4068900D01*
X881670Y4060900D01*
X887000Y4048900D01*
X888330Y4034900D01*
X887000Y4022900D01*
X881670Y4010900D01*
X873670Y4000900D01*
X864330Y3996900D01*
X853670Y4000900D01*
X844330Y4012900D01*
X839000Y4030900D01*
X837670Y4050900D01*
X840330Y4076900D01*
X844330Y4090900D01*
X851000Y4104900D01*
X860330Y4114900D01*
X869670Y4116900D01*
X879000Y4112900D01*
X885670Y4102900D01*
G01X1853830Y1498100D02*
Y1618100D01*
X1887170D01*
X1897830Y1612100D01*
X1904500Y1604100D01*
X1907170Y1588100D01*
X1904500Y1572100D01*
X1896500Y1562100D01*
X1887170Y1556100D01*
X1853830D01*
G01X1887170D02*
X1907170Y1498100D01*
G01X1975700D02*
X1985030Y1500100D01*
X1995700Y1506100D01*
X2002370Y1516100D01*
X2005030Y1530100D01*
X2002370Y1544100D01*
X1994370Y1556100D01*
X1982370Y1562100D01*
X1969030D01*
X1961030Y1566100D01*
X1954370Y1576100D01*
X1951700Y1590100D01*
X1955700Y1604100D01*
X1965030Y1614100D01*
X1975700Y1618100D01*
X1986370Y1614100D01*
X1995700Y1604100D01*
X1999700Y1590100D01*
X1997030Y1576100D01*
X1990370Y1566100D01*
X1982370Y1562100D01*
X1969030D01*
X1957030Y1556100D01*
X1949030Y1544100D01*
X1946370Y1530100D01*
X1949030Y1516100D01*
X1955700Y1506100D01*
X1966370Y1500100D01*
X1975700Y1498100D01*
G01X1853830Y2018100D02*
Y2138100D01*
X1887170D01*
X1897830Y2132100D01*
X1904500Y2124100D01*
X1907170Y2108100D01*
X1904500Y2092100D01*
X1896500Y2082100D01*
X1887170Y2076100D01*
X1853830D01*
G01X1887170D02*
X1907170Y2018100D01*
G01X1946370Y2036100D02*
X1954370Y2026100D01*
X1963700Y2020100D01*
X1975700Y2018100D01*
X1987700Y2022100D01*
X1997030Y2030100D01*
X2003700Y2044100D01*
X2005030Y2060100D01*
X2002370Y2076100D01*
X1995700Y2086100D01*
X1986370Y2094100D01*
X1977030Y2096100D01*
X1967700Y2094100D01*
X1955700Y2086100D01*
X1959700Y2138100D01*
X1995700D01*
G01X1812800Y3503600D02*
Y3557600D01*
X1786130Y3623600D01*
G01X1839470D02*
X1812800Y3557600D01*
G01X1882670Y3603600D02*
X1890670Y3615600D01*
X1900000Y3621600D01*
X1910670Y3623600D01*
X1924000Y3619600D01*
X1933330Y3609600D01*
X1936000Y3597600D01*
X1934670Y3585600D01*
X1929330Y3575600D01*
X1902670Y3555600D01*
X1890670Y3541600D01*
X1882670Y3521600D01*
X1880000Y3503600D01*
X1936000D01*
G01X2286170Y741900D02*
Y621900D01*
X2252830D01*
X2242170Y627900D01*
X2235500Y635900D01*
X2232830Y651900D01*
X2235500Y667900D01*
X2243500Y677900D01*
X2252830Y683900D01*
X2286170D01*
G01X2252830D02*
X2232830Y741900D01*
G01X2166970D02*
X2164300Y715900D01*
X2160300Y693900D01*
X2154970Y673900D01*
X2148300Y651900D01*
X2137630Y621900D01*
X2190970D01*
G01X1881330Y2424100D02*
Y2544100D01*
X1914670D01*
X1925330Y2538100D01*
X1932000Y2530100D01*
X1934670Y2514100D01*
X1932000Y2498100D01*
X1924000Y2488100D01*
X1914670Y2482100D01*
X1881330D01*
G01X1914670D02*
X1934670Y2424100D01*
G01X1977870Y2474100D02*
X1987200Y2488100D01*
X1995200Y2496100D01*
X2005870Y2500100D01*
X2015200Y2496100D01*
X2021870Y2488100D01*
X2027200Y2476100D01*
X2028530Y2462100D01*
X2027200Y2450100D01*
X2021870Y2438100D01*
X2013870Y2428100D01*
X2004530Y2424100D01*
X1993870Y2428100D01*
X1984530Y2440100D01*
X1979200Y2458100D01*
X1977870Y2478100D01*
X1980530Y2504100D01*
X1984530Y2518100D01*
X1991200Y2532100D01*
X2000530Y2542100D01*
X2009870Y2544100D01*
X2019200Y2540100D01*
X2025870Y2530100D01*
G01X2266170Y3561900D02*
Y3441900D01*
X2232830D01*
X2222170Y3447900D01*
X2215500Y3455900D01*
X2212830Y3471900D01*
X2215500Y3487900D01*
X2223500Y3497900D01*
X2232830Y3503900D01*
X2266170D01*
G01X2232830D02*
X2212830Y3561900D01*
G01X2144300D02*
Y3441900D01*
X2160300Y3465900D01*
G01Y3561900D02*
X2128300D01*
G01X3117130Y1446900D02*
X3109130Y1452900D01*
X3099800Y1456900D01*
X3089130D01*
X3077130Y1450900D01*
X3067800Y1440900D01*
X3061130Y1428900D01*
X3055800Y1408900D01*
X3054470Y1390900D01*
X3057130Y1372900D01*
X3061130Y1360900D01*
X3069130Y1348900D01*
X3078470Y1340900D01*
X3087800Y1336900D01*
X3097130D01*
X3106470Y1340900D01*
X3114470Y1346900D01*
X3121130Y1354900D01*
G01X3199000Y1336900D02*
Y1456900D01*
X3149670Y1370900D01*
X3216330D01*
G01X3191100Y3238830D02*
X3105100D01*
X3087100Y3233500D01*
X3075100Y3222830D01*
X3071100Y3209500D01*
X3075100Y3196170D01*
X3087100Y3185500D01*
X3105100Y3180170D01*
X3191100D01*
G01X3071100Y3114300D02*
X3191100D01*
X3167100Y3130300D01*
G01X3071100D02*
Y3098300D01*
G01X3746900Y3842870D02*
X3752900Y3850870D01*
X3756900Y3860200D01*
Y3870870D01*
X3750900Y3882870D01*
X3740900Y3892200D01*
X3728900Y3898870D01*
X3708900Y3904200D01*
X3690900Y3905530D01*
X3672900Y3902870D01*
X3660900Y3898870D01*
X3648900Y3890870D01*
X3640900Y3881530D01*
X3636900Y3872200D01*
Y3862870D01*
X3640900Y3853530D01*
X3646900Y3845530D01*
X3654900Y3838870D01*
G01X3636900Y3777000D02*
X3756900D01*
X3732900Y3793000D01*
G01X3636900D02*
Y3761000D01*
G01X4675330Y1408100D02*
Y1528100D01*
X4708670D01*
X4719330Y1522100D01*
X4726000Y1514100D01*
X4728670Y1498100D01*
X4726000Y1482100D01*
X4718000Y1472100D01*
X4708670Y1466100D01*
X4675330D01*
G01X4708670D02*
X4728670Y1408100D01*
G01X4797200D02*
Y1528100D01*
X4781200Y1504100D01*
G01Y1408100D02*
X4813200D01*
G01X4908400D02*
Y1528100D01*
X4859070Y1442100D01*
X4925730D01*
G01X4675330Y1789100D02*
Y1909100D01*
X4708670D01*
X4719330Y1903100D01*
X4726000Y1895100D01*
X4728670Y1879100D01*
X4726000Y1863100D01*
X4718000Y1853100D01*
X4708670Y1847100D01*
X4675330D01*
G01X4708670D02*
X4728670Y1789100D01*
G01X4813200D02*
Y1909100D01*
X4763870Y1823100D01*
X4830530D01*
G01X4675330Y2551100D02*
Y2671100D01*
X4708670D01*
X4719330Y2665100D01*
X4726000Y2657100D01*
X4728670Y2641100D01*
X4726000Y2625100D01*
X4718000Y2615100D01*
X4708670Y2609100D01*
X4675330D01*
G01X4708670D02*
X4728670Y2551100D01*
G01X4771870Y2651100D02*
X4779870Y2663100D01*
X4789200Y2669100D01*
X4799870Y2671100D01*
X4813200Y2667100D01*
X4822530Y2657100D01*
X4825200Y2645100D01*
X4823870Y2633100D01*
X4818530Y2623100D01*
X4791870Y2603100D01*
X4779870Y2589100D01*
X4771870Y2569100D01*
X4769200Y2551100D01*
X4825200D01*
G01X4675330Y2170100D02*
Y2290100D01*
X4708670D01*
X4719330Y2284100D01*
X4726000Y2276100D01*
X4728670Y2260100D01*
X4726000Y2244100D01*
X4718000Y2234100D01*
X4708670Y2228100D01*
X4675330D01*
G01X4708670D02*
X4728670Y2170100D01*
G01X4767870Y2194100D02*
X4775870Y2180100D01*
X4786530Y2172100D01*
X4798530Y2170100D01*
X4809200Y2172100D01*
X4819870Y2182100D01*
X4826530Y2194100D01*
X4827870Y2206100D01*
X4825200Y2220100D01*
X4815870Y2230100D01*
X4806530Y2234100D01*
X4794530D01*
G01X4806530D02*
X4814530Y2240100D01*
X4821200Y2250100D01*
X4823870Y2262100D01*
X4821200Y2274100D01*
X4814530Y2284100D01*
X4802530Y2290100D01*
X4790530Y2288100D01*
X4778530Y2280100D01*
G01X4586900Y3842870D02*
X4592900Y3850870D01*
X4596900Y3860200D01*
Y3870870D01*
X4590900Y3882870D01*
X4580900Y3892200D01*
X4568900Y3898870D01*
X4548900Y3904200D01*
X4530900Y3905530D01*
X4512900Y3902870D01*
X4500900Y3898870D01*
X4488900Y3890870D01*
X4480900Y3881530D01*
X4476900Y3872200D01*
Y3862870D01*
X4480900Y3853530D01*
X4486900Y3845530D01*
X4494900Y3838870D01*
G01X4576900Y3802330D02*
X4588900Y3794330D01*
X4594900Y3785000D01*
X4596900Y3774330D01*
X4592900Y3761000D01*
X4582900Y3751670D01*
X4570900Y3749000D01*
X4558900Y3750330D01*
X4548900Y3755670D01*
X4528900Y3782330D01*
X4514900Y3794330D01*
X4494900Y3802330D01*
X4476900Y3805000D01*
Y3749000D01*
G01X5446900Y3842870D02*
X5452900Y3850870D01*
X5456900Y3860200D01*
Y3870870D01*
X5450900Y3882870D01*
X5440900Y3892200D01*
X5428900Y3898870D01*
X5408900Y3904200D01*
X5390900Y3905530D01*
X5372900Y3902870D01*
X5360900Y3898870D01*
X5348900Y3890870D01*
X5340900Y3881530D01*
X5336900Y3872200D01*
Y3862870D01*
X5340900Y3853530D01*
X5346900Y3845530D01*
X5354900Y3838870D01*
G01X5360900Y3806330D02*
X5346900Y3798330D01*
X5338900Y3787670D01*
X5336900Y3775670D01*
X5338900Y3765000D01*
X5348900Y3754330D01*
X5360900Y3747670D01*
X5372900Y3746330D01*
X5386900Y3749000D01*
X5396900Y3758330D01*
X5400900Y3767670D01*
Y3779670D01*
G01Y3767670D02*
X5406900Y3759670D01*
X5416900Y3753000D01*
X5428900Y3750330D01*
X5440900Y3753000D01*
X5450900Y3759670D01*
X5456900Y3771670D01*
X5454900Y3783670D01*
X5446900Y3795670D01*
G01X5868370Y1209300D02*
X5861700Y1221300D01*
X5853700Y1229300D01*
X5844370Y1233300D01*
X5833700Y1229300D01*
X5825700Y1221300D01*
X5817700Y1209300D01*
X5815030Y1193300D01*
Y1113300D01*
G01X5746500Y1233300D02*
Y1113300D01*
X5762500Y1137300D01*
G01Y1233300D02*
X5730500D01*
G01X7018200Y614900D02*
Y560900D01*
X7044870Y494900D01*
G01X6991530D02*
X7018200Y560900D01*
G01X6923000Y614900D02*
Y494900D01*
X6939000Y518900D01*
G01Y614900D02*
X6907000D01*
G01X6826900Y2762870D02*
X6832900Y2770870D01*
X6836900Y2780200D01*
Y2790870D01*
X6830900Y2802870D01*
X6820900Y2812200D01*
X6808900Y2818870D01*
X6788900Y2824200D01*
X6770900Y2825530D01*
X6752900Y2822870D01*
X6740900Y2818870D01*
X6728900Y2810870D01*
X6720900Y2801530D01*
X6716900Y2792200D01*
Y2782870D01*
X6720900Y2773530D01*
X6726900Y2765530D01*
X6734900Y2758870D01*
G01X6716900Y2697000D02*
X6836900D01*
X6812900Y2713000D01*
G01X6716900D02*
Y2681000D01*
G01X6836900Y2601800D02*
X6832900Y2612470D01*
X6822900Y2620470D01*
X6810900Y2625800D01*
X6794900Y2629800D01*
X6776900Y2631130D01*
X6758900Y2629800D01*
X6742900Y2625800D01*
X6730900Y2620470D01*
X6720900Y2612470D01*
X6716900Y2601800D01*
X6720900Y2591130D01*
X6730900Y2583130D01*
X6742900Y2577800D01*
X6758900Y2573800D01*
X6776900Y2572470D01*
X6794900Y2573800D01*
X6810900Y2577800D01*
X6822900Y2583130D01*
X6832900Y2591130D01*
X6836900Y2601800D01*
G01X6826900Y1982870D02*
X6832900Y1990870D01*
X6836900Y2000200D01*
Y2010870D01*
X6830900Y2022870D01*
X6820900Y2032200D01*
X6808900Y2038870D01*
X6788900Y2044200D01*
X6770900Y2045530D01*
X6752900Y2042870D01*
X6740900Y2038870D01*
X6728900Y2030870D01*
X6720900Y2021530D01*
X6716900Y2012200D01*
Y2002870D01*
X6720900Y1993530D01*
X6726900Y1985530D01*
X6734900Y1978870D01*
G01X6716900Y1919670D02*
X6742900Y1917000D01*
X6764900Y1913000D01*
X6784900Y1907670D01*
X6806900Y1901000D01*
X6836900Y1890330D01*
Y1943670D01*
G01X6673830Y3378100D02*
Y3498100D01*
X6707170D01*
X6717830Y3492100D01*
X6724500Y3484100D01*
X6727170Y3468100D01*
X6724500Y3452100D01*
X6716500Y3442100D01*
X6707170Y3436100D01*
X6673830D01*
G01X6707170D02*
X6727170Y3378100D01*
G01X6773030Y3392100D02*
X6782370Y3382100D01*
X6793030Y3378100D01*
X6803700Y3382100D01*
X6813030Y3394100D01*
X6819700Y3412100D01*
X6822370Y3430100D01*
Y3452100D01*
X6819700Y3470100D01*
X6813030Y3486100D01*
X6805030Y3494100D01*
X6795700Y3498100D01*
X6785030Y3494100D01*
X6777030Y3486100D01*
X6771700Y3474100D01*
X6769030Y3458100D01*
X6771700Y3444100D01*
X6778370Y3430100D01*
X6786370Y3422100D01*
X6795700Y3420100D01*
X6806370Y3424100D01*
X6814370Y3434100D01*
X6822370Y3452100D01*
G01X7086170Y3621900D02*
Y3501900D01*
X7052830D01*
X7042170Y3507900D01*
X7035500Y3515900D01*
X7032830Y3531900D01*
X7035500Y3547900D01*
X7043500Y3557900D01*
X7052830Y3563900D01*
X7086170D01*
G01X7052830D02*
X7032830Y3621900D01*
G01X6964300D02*
Y3501900D01*
X6980300Y3525900D01*
G01Y3621900D02*
X6948300D01*
G01X6869100Y3501900D02*
X6879770Y3505900D01*
X6887770Y3515900D01*
X6893100Y3527900D01*
X6897100Y3543900D01*
X6898430Y3561900D01*
X6897100Y3579900D01*
X6893100Y3595900D01*
X6887770Y3607900D01*
X6879770Y3617900D01*
X6869100Y3621900D01*
X6858430Y3617900D01*
X6850430Y3607900D01*
X6845100Y3595900D01*
X6841100Y3579900D01*
X6839770Y3561900D01*
X6841100Y3543900D01*
X6845100Y3527900D01*
X6850430Y3515900D01*
X6858430Y3505900D01*
X6869100Y3501900D01*
G01X7586900Y2382870D02*
X7592900Y2390870D01*
X7596900Y2400200D01*
Y2410870D01*
X7590900Y2422870D01*
X7580900Y2432200D01*
X7568900Y2438870D01*
X7548900Y2444200D01*
X7530900Y2445530D01*
X7512900Y2442870D01*
X7500900Y2438870D01*
X7488900Y2430870D01*
X7480900Y2421530D01*
X7476900Y2412200D01*
Y2402870D01*
X7480900Y2393530D01*
X7486900Y2385530D01*
X7494900Y2378870D01*
G01X7476900Y2317000D02*
X7478900Y2307670D01*
X7484900Y2297000D01*
X7494900Y2290330D01*
X7508900Y2287670D01*
X7522900Y2290330D01*
X7534900Y2298330D01*
X7540900Y2310330D01*
Y2323670D01*
X7544900Y2331670D01*
X7554900Y2338330D01*
X7568900Y2341000D01*
X7582900Y2337000D01*
X7592900Y2327670D01*
X7596900Y2317000D01*
X7592900Y2306330D01*
X7582900Y2297000D01*
X7568900Y2293000D01*
X7554900Y2295670D01*
X7544900Y2302330D01*
X7540900Y2310330D01*
Y2323670D01*
X7534900Y2335670D01*
X7522900Y2343670D01*
X7508900Y2346330D01*
X7494900Y2343670D01*
X7484900Y2337000D01*
X7478900Y2326330D01*
X7476900Y2317000D01*
G01X7959600Y3162000D02*
Y3130000D01*
G01Y3146000D02*
X7839600D01*
G01Y3162000D02*
Y3130000D01*
G01X7949600Y3021470D02*
X7955600Y3029470D01*
X7959600Y3038800D01*
Y3049470D01*
X7953600Y3061470D01*
X7943600Y3070800D01*
X7931600Y3077470D01*
X7911600Y3082800D01*
X7893600Y3084130D01*
X7875600Y3081470D01*
X7863600Y3077470D01*
X7851600Y3069470D01*
X7843600Y3060130D01*
X7839600Y3050800D01*
Y3041470D01*
X7843600Y3032130D01*
X7849600Y3024130D01*
X7857600Y3017470D01*
G01X7839600Y2955600D02*
X7959600D01*
X7935600Y2971600D01*
G01X7839600D02*
Y2939600D01*
G01X8073830Y978100D02*
Y1098100D01*
X8107170D01*
X8117830Y1092100D01*
X8124500Y1084100D01*
X8127170Y1068100D01*
X8124500Y1052100D01*
X8116500Y1042100D01*
X8107170Y1036100D01*
X8073830D01*
G01X8107170D02*
X8127170Y978100D01*
G01X8195700D02*
Y1098100D01*
X8179700Y1074100D01*
G01Y978100D02*
X8211700D01*
G01X8261570Y996100D02*
X8269570Y986100D01*
X8278900Y980100D01*
X8290900Y978100D01*
X8302900Y982100D01*
X8312230Y990100D01*
X8318900Y1004100D01*
X8320230Y1020100D01*
X8317570Y1036100D01*
X8310900Y1046100D01*
X8301570Y1054100D01*
X8292230Y1056100D01*
X8282900Y1054100D01*
X8270900Y1046100D01*
X8274900Y1098100D01*
X8310900D01*
G01X8073670Y3856900D02*
Y3976900D01*
X8100330D01*
X8111000Y3970900D01*
X8119000Y3962900D01*
X8125670Y3950900D01*
X8131000Y3936900D01*
X8132330Y3916900D01*
X8131000Y3896900D01*
X8125670Y3882900D01*
X8119000Y3870900D01*
X8111000Y3862900D01*
X8100330Y3856900D01*
X8073670D01*
G01X8198200D02*
Y3976900D01*
X8182200Y3952900D01*
G01Y3856900D02*
X8214200D01*
G01X9409870Y1412300D02*
X9403200Y1424300D01*
X9395200Y1432300D01*
X9385870Y1436300D01*
X9375200Y1432300D01*
X9367200Y1424300D01*
X9359200Y1412300D01*
X9356530Y1396300D01*
Y1316300D01*
G01X9272000Y1436300D02*
Y1316300D01*
X9321330Y1402300D01*
X9254670D01*
G01X9613830Y978100D02*
Y1098100D01*
X9647170D01*
X9657830Y1092100D01*
X9664500Y1084100D01*
X9667170Y1068100D01*
X9664500Y1052100D01*
X9656500Y1042100D01*
X9647170Y1036100D01*
X9613830D01*
G01X9647170D02*
X9667170Y978100D01*
G01X9735700D02*
Y1098100D01*
X9719700Y1074100D01*
G01Y978100D02*
X9751700D01*
G01X9801570Y1002100D02*
X9809570Y988100D01*
X9820230Y980100D01*
X9832230Y978100D01*
X9842900Y980100D01*
X9853570Y990100D01*
X9860230Y1002100D01*
X9861570Y1014100D01*
X9858900Y1028100D01*
X9849570Y1038100D01*
X9840230Y1042100D01*
X9828230D01*
G01X9840230D02*
X9848230Y1048100D01*
X9854900Y1058100D01*
X9857570Y1070100D01*
X9854900Y1082100D01*
X9848230Y1092100D01*
X9836230Y1098100D01*
X9824230Y1096100D01*
X9812230Y1088100D01*
G01X10089870Y1412300D02*
X10083200Y1424300D01*
X10075200Y1432300D01*
X10065870Y1436300D01*
X10055200Y1432300D01*
X10047200Y1424300D01*
X10039200Y1412300D01*
X10036530Y1396300D01*
Y1316300D01*
G01X9997330Y1412300D02*
X9989330Y1426300D01*
X9978670Y1434300D01*
X9966670Y1436300D01*
X9956000Y1434300D01*
X9945330Y1424300D01*
X9938670Y1412300D01*
X9937330Y1400300D01*
X9940000Y1386300D01*
X9949330Y1376300D01*
X9958670Y1372300D01*
X9970670D01*
G01X9958670D02*
X9950670Y1366300D01*
X9944000Y1356300D01*
X9941330Y1344300D01*
X9944000Y1332300D01*
X9950670Y1322300D01*
X9962670Y1316300D01*
X9974670Y1318300D01*
X9986670Y1326300D01*
G01X9613830Y3398100D02*
Y3518100D01*
X9647170D01*
X9657830Y3512100D01*
X9664500Y3504100D01*
X9667170Y3488100D01*
X9664500Y3472100D01*
X9656500Y3462100D01*
X9647170Y3456100D01*
X9613830D01*
G01X9647170D02*
X9667170Y3398100D01*
G01X9735700D02*
Y3518100D01*
X9719700Y3494100D01*
G01Y3398100D02*
X9751700D01*
G01X9805570Y3498100D02*
X9813570Y3510100D01*
X9822900Y3516100D01*
X9833570Y3518100D01*
X9846900Y3514100D01*
X9856230Y3504100D01*
X9858900Y3492100D01*
X9857570Y3480100D01*
X9852230Y3470100D01*
X9825570Y3450100D01*
X9813570Y3436100D01*
X9805570Y3416100D01*
X9802900Y3398100D01*
X9858900D01*
G01X9593830Y3938100D02*
Y4058100D01*
X9627170D01*
X9637830Y4052100D01*
X9644500Y4044100D01*
X9647170Y4028100D01*
X9644500Y4012100D01*
X9636500Y4002100D01*
X9627170Y3996100D01*
X9593830D01*
G01X9627170D02*
X9647170Y3938100D01*
G01X9715700D02*
Y4058100D01*
X9699700Y4034100D01*
G01Y3938100D02*
X9731700D01*
G01X9810900D02*
Y4058100D01*
X9794900Y4034100D01*
G01Y3938100D02*
X9826900D01*
G01X1424700Y1696230D02*
X1418350Y1692850D01*
X1414120Y1688790D01*
X1412000Y1684050D01*
X1414120Y1678640D01*
X1418350Y1674580D01*
X1424700Y1670520D01*
X1433170Y1669170D01*
X1475500D01*
G01X1464920Y1639760D02*
X1471270Y1635700D01*
X1474440Y1630960D01*
X1475500Y1625550D01*
X1473380Y1618780D01*
X1468090Y1614040D01*
X1461740Y1612690D01*
X1455390Y1613370D01*
X1450100Y1616070D01*
X1439520Y1629610D01*
X1432110Y1635700D01*
X1421520Y1639760D01*
X1412000Y1641110D01*
Y1612690D01*
G54D11*
G01X1238200Y2222500D02*
G02I-285700J0D01*
G01X1272700Y2980000D02*
G02I-285700J0D01*
G01Y3700000D02*
G02I-285700J0D01*
G01X1754500Y880000D02*
X1691000D01*
G01X2389500Y753000D02*
X1754500D01*
G01D02*
Y880000D01*
G01D02*
Y1007000D01*
G01D02*
X2389500D01*
G01X1750500Y1753000D02*
Y1880000D01*
G01X2385500Y1753000D02*
X1750500D01*
G01Y1360000D02*
X1687000D01*
G01X1750500Y1233000D02*
Y1360000D01*
G01D02*
Y1487000D01*
G01D02*
X2385500D01*
G01Y1233000D02*
X1750500D01*
G01Y1880000D02*
X1687000D01*
G01X1750500D02*
Y2007000D01*
G01D02*
X2385500D01*
G01X1778000Y2286000D02*
X1714500D01*
G01X1778000Y2159000D02*
Y2286000D01*
G01D02*
Y2413000D01*
G01D02*
X2413000D01*
G01Y2159000D02*
X1778000D01*
G01X2603500Y2984500D02*
X1460500D01*
G01D02*
Y3492500D01*
G01X1734500Y3700000D02*
X1671000D01*
G01X2369500Y3573000D02*
X1734500D01*
G01D02*
Y3700000D01*
G01D02*
Y3827000D01*
G01D02*
X2369500D01*
G01X1460500Y3492500D02*
X2603500D01*
G01X2389500Y880000D02*
X2453000D01*
G01X2389500Y1007000D02*
Y880000D01*
G01D02*
Y753000D01*
G01X2385500Y1880000D02*
Y1753000D01*
G01Y1360000D02*
X2449000D01*
G01X2385500Y1487000D02*
Y1360000D01*
G01D02*
Y1233000D01*
G01Y1880000D02*
X2449000D01*
G01X2385500Y2007000D02*
Y1880000D01*
G01X2413000Y2286000D02*
X2476500D01*
G01X2413000Y2413000D02*
Y2286000D01*
G01D02*
Y2159000D01*
G01X2603500Y3492500D02*
Y2984500D01*
G01X2369500Y3700000D02*
X2433000D01*
G01X2369500Y3827000D02*
Y3700000D01*
G01D02*
Y3573000D01*
G01X3592700Y1040000D02*
G02I-285700J0D01*
G01X3625700Y3653000D02*
G02I-285700J0D01*
G01X4465700D02*
G02I-285700J0D01*
G01X4572000Y1270000D02*
X4508500D01*
G01X4572000Y1143000D02*
Y1270000D01*
G01D02*
Y1397000D01*
G01D02*
X5207000D01*
G01Y1143000D02*
X4572000D01*
G01Y1651000D02*
X4508500D01*
G01X4572000Y1524000D02*
Y1651000D01*
G01D02*
Y1778000D01*
G01D02*
X5207000D01*
G01Y1524000D02*
X4572000D01*
G01Y2413000D02*
X4508500D01*
G01X4572000Y2286000D02*
Y2413000D01*
G01D02*
Y2540000D01*
G01D02*
X5207000D01*
G01Y2286000D02*
X4572000D01*
G01Y2032000D02*
X4508500D01*
G01X4572000Y1905000D02*
Y2032000D01*
G01D02*
Y2159000D01*
G01D02*
X5207000D01*
G01Y1905000D02*
X4572000D01*
G01X5325700Y3653000D02*
G02I-285700J0D01*
G01X5651500Y1257300D02*
Y2552700D01*
G01X5905500Y1257300D02*
X5651500D01*
G01X5207000Y1270000D02*
X5270500D01*
G01X5207000Y1397000D02*
Y1270000D01*
G01D02*
Y1143000D01*
G01Y1651000D02*
X5270500D01*
G01X5207000Y1778000D02*
Y1651000D01*
G01D02*
Y1524000D01*
G01X5651500Y2552700D02*
X5905500D01*
G01X5207000Y2413000D02*
X5270500D01*
G01X5207000Y2540000D02*
Y2413000D01*
G01D02*
Y2286000D01*
G01Y2032000D02*
X5270500D01*
G01X5207000Y2159000D02*
Y2032000D01*
G01D02*
Y1905000D01*
G01X7370500Y626000D02*
X6227500D01*
G01D02*
Y1134000D01*
G01X5905500Y1397000D02*
Y1257300D01*
G01Y1651000D02*
Y1397000D01*
G01Y1905000D02*
Y1651000D01*
G01X6705700Y1793000D02*
G02I-285700J0D01*
G01X6227500Y1134000D02*
X7370500D01*
G01X5905500Y2159000D02*
Y1905000D01*
G01Y2413000D02*
Y2159000D01*
G01Y2552700D02*
Y2413000D01*
G01X6705700Y2573000D02*
G02I-285700J0D01*
G01X7465700Y2193000D02*
G02I-285700J0D01*
G01X6570500Y3240000D02*
X6507000D01*
G01X6570500Y3113000D02*
Y3240000D01*
G01D02*
Y3367000D01*
G01D02*
X7205500D01*
G01Y3113000D02*
X6570500D01*
G01X7189500Y3760000D02*
X7253000D01*
G01X6554500D02*
X6491000D01*
G01X7189500Y3887000D02*
Y3760000D01*
G01D02*
Y3633000D01*
G01D02*
X6554500D01*
G01D02*
Y3760000D01*
G01D02*
Y3887000D01*
G01D02*
X7189500D01*
G01X7970500Y840000D02*
X7907000D01*
G01X7370500Y1134000D02*
Y626000D01*
G01X7205500Y3240000D02*
X7269000D01*
G01X7205500Y3367000D02*
Y3240000D01*
G01D02*
Y3113000D01*
G01X7941300Y3560000D02*
G02X8258700Y3877500I317400J100D01*
G02Y3242500I0J-317500D01*
G02X7941300Y3560000I0J317400D01*
G01X8605500Y840000D02*
X8669000D01*
G01X7970500Y713000D02*
Y840000D01*
G01D02*
Y967000D01*
G01D02*
X8605500D01*
G01D02*
Y840000D01*
G01D02*
Y713000D01*
G01D02*
X7970500D01*
G01X9510500Y840000D02*
X9447000D01*
G01X9193000Y1460300D02*
Y2755700D01*
G01X9447000Y1460300D02*
X9193000D01*
G01X9447000Y1600000D02*
Y1460300D01*
G01Y1854000D02*
Y1600000D01*
G01Y2108000D02*
Y1854000D01*
G01Y2362000D02*
Y2108000D01*
G01Y2616000D02*
Y2362000D01*
G01Y2755700D02*
Y2616000D01*
G01X9193000Y2755700D02*
X9447000D01*
G01X9510500Y3260000D02*
X9447000D01*
G01X9490500Y3800000D02*
X9427000D01*
G01X10145500Y840000D02*
X10209000D01*
G01X9510500Y713000D02*
Y840000D01*
G01D02*
Y967000D01*
G01D02*
X10145500D01*
G01D02*
Y840000D01*
G01D02*
Y713000D01*
G01D02*
X9510500D01*
G01X9873000Y1460300D02*
Y2755700D01*
G01X10127000Y1460300D02*
X9873000D01*
G01X10127000Y1600000D02*
Y1460300D01*
G01Y1854000D02*
Y1600000D01*
G01Y2108000D02*
Y1854000D01*
G01Y2362000D02*
Y2108000D01*
G01Y2616000D02*
Y2362000D01*
G01Y2755700D02*
Y2616000D01*
G01X9873000Y2755700D02*
X10127000D01*
G01X10145500Y3260000D02*
X10209000D01*
G01X9510500Y3133000D02*
Y3260000D01*
G01D02*
Y3387000D01*
G01D02*
X10145500D01*
G01D02*
Y3260000D01*
G01D02*
Y3133000D01*
G01D02*
X9510500D01*
G01X10125500Y3800000D02*
X10189000D01*
G01X9490500Y3673000D02*
Y3800000D01*
G01D02*
Y3927000D01*
G01D02*
X10125500D01*
G01D02*
Y3800000D01*
G01D02*
Y3673000D01*
G01D02*
X9490500D01*
G54D12*
G01X3044200Y2672800D02*
X3186900D01*
G01X7812700Y2609300D02*
X7955400D01*
M02*
