G04 ================== begin FILE IDENTIFICATION RECORD ==================*
G04 Layout Name:  C:/Users/user/Desktop/work/avrusb/allegro/AVRUSB500.brd*
G04 Film Name:    solderB*
G04 File Format:  Gerber RS274X*
G04 File Origin:  Cadence Allegro 16.6-S034*
G04 Origin Date:  Fri Jul 19 14:11:37 2019*
G04 *
G04 Layer:  VIA CLASS/SOLDERMASK_BOTTOM*
G04 Layer:  PIN/SOLDERMASK_BOTTOM*
G04 Layer:  PACKAGE GEOMETRY/SOLDERMASK_BOTTOM*
G04 Layer:  BOARD GEOMETRY/SOLDERMASK_BOTTOM*
G04 *
G04 Offset:    (0.0000 0.0000)*
G04 Mirror:    No*
G04 Mode:      Positive*
G04 Rotation:  0*
G04 FullContactRelief:  No*
G04 UndefLineWidth:     0.0000*
G04 ================== end FILE IDENTIFICATION RECORD ====================*
%FSLAX55Y55*MOMM*%
%IR0*IPPOS*OFA0.00000B0.00000*MIA0B0*SFA1.00000B1.00000*%
%ADD10O,1.8999X1.1999*%
%ADD12C,1.3211*%
%ADD13C,1.118*%
%ADD11R,1.3211X1.3211*%
%ADD14C,1.5751*%
%ADD15R,1.5751X1.5751*%
%LPD*%
G75*
G54D10*
X1132000Y630500D03*
X762000D03*
X1132000Y1655500D03*
X762000D03*
G54D11*
X825500Y2222500D03*
X860000Y2980000D03*
Y3700000D03*
X3180000Y1040000D03*
X3340000Y3780000D03*
X4180000D03*
X5040000D03*
X6420000Y1920000D03*
Y2700000D03*
X7180000Y2320000D03*
X8100000Y3560000D03*
G54D12*
X1079500Y2222500D03*
X1114000Y2980000D03*
Y3700000D03*
X1564000Y880000D03*
X1560000Y1880000D03*
Y1360000D03*
X1587500Y2286000D03*
X1651000Y3238500D03*
X1544000Y3700000D03*
X2580000Y880000D03*
X2576000Y1880000D03*
Y1360000D03*
X2603500Y2286000D03*
X2413000Y3238500D03*
X2560000Y3700000D03*
X3434000Y1040000D03*
X3340000Y3526000D03*
X4180000D03*
X4381500Y1270000D03*
Y1651000D03*
Y2413000D03*
Y2032000D03*
X5397500Y1270000D03*
Y1651000D03*
Y2413000D03*
Y2032000D03*
X5040000Y3526000D03*
X6418000Y880000D03*
X6420000Y1666000D03*
Y2446000D03*
X6380000Y3240000D03*
X6364000Y3760000D03*
X7180000Y880000D03*
Y2066000D03*
X7780000Y840000D03*
X7396000Y3240000D03*
X7380000Y3760000D03*
X8417500Y3560000D03*
X9320000Y840000D03*
X8796000D03*
X9320000Y3260000D03*
X9300000Y3800000D03*
X10336000Y840000D03*
Y3260000D03*
X10316000Y3800000D03*
G54D13*
X2984500Y1460500D03*
X3429000Y2286000D03*
X3256300Y2538100D03*
Y2159000D03*
X2741900Y2043400D03*
X2813000Y2203500D03*
X3302000Y2984500D03*
X3656300Y2603500D03*
X3492500D03*
X3937000Y2794000D03*
X4191000Y2730500D03*
X3492500Y2984500D03*
X7810500Y1841500D03*
X7683500Y2032000D03*
X8445500Y2286000D03*
X8572500Y2095500D03*
Y2476500D03*
G54D14*
X5778500Y1905000D03*
Y1651000D03*
Y2413000D03*
Y2159000D03*
X9320000Y1854000D03*
Y2616000D03*
Y2362000D03*
Y2108000D03*
X10000000Y1854000D03*
Y2616000D03*
Y2362000D03*
Y2108000D03*
G54D15*
X5778500Y1397000D03*
X9320000Y1600000D03*
X10000000D03*
M02*
